<?xml version="1.0" encoding="UTF-8"?>
<svg xmlns="http://www.w3.org/2000/svg" viewBox="0 0 630 800">
  <defs>
    <style>
      .cls-1 {
        stroke-width: 13.43px;
      }

      .cls-1, .cls-2, .cls-3, .cls-4, .cls-5 {
        fill: none;
      }

      .cls-1, .cls-3 {
        stroke-miterlimit: 3.86;
      }

      .cls-1, .cls-5 {
        stroke: #000;
      }

      .cls-2 {
        stroke: #1a171b;
        stroke-width: .52px;
      }

      .cls-6, .cls-7 {
        fill: #7d7d7d;
      }

      .cls-3 {
        stroke-width: 17.57px;
      }

      .cls-3, .cls-4 {
        stroke: #fff;
      }

      .cls-7 {
        font-family: TitilliumWeb-Bold, 'Titillium Web';
        font-size: 10px;
        font-weight: 700;
      }

      .cls-4 {
        stroke-width: 1.8px;
      }

      .cls-8 {
        letter-spacing: -.01em;
      }

      .cls-9 {
        letter-spacing: 0em;
      }

      .cls-5 {
        stroke-width: 15.3px;
      }
    
     #GA path, #GA rect, #GA polygon{
        mask: url(#mask-stripe)
      }

    </style>

   <pattern id="pattern-stripe" 
            width="4" height="4" 
            patternUnits="userSpaceOnUse"
            patternTransform="rotate(45)">
            <rect width="1.5" height="4" transform="translate(0,0)" fill="white"></rect>
    </pattern>
    <mask id="mask-stripe">
          <rect x="0" y="0" width="1000" height="1000" fill="url(#pattern-stripe)" />
    </mask>  
</defs>  

  <g id="GA">
    <path idGrandstand="11004" class="cls-6" d="M21.27,268.89l9.1,26.27-9.76,3.38-9.1-26.27,9.76-3.38ZM142.93,227.17l10.79,23.72-9.41,4.28-9.94-21.85-11.23-10.5-12.01-6.11,4.69-9.21,13.31,6.77,13.8,12.9Z"/>
  </g>
  <g id="track">
    <g>
      <g>
        <path class="cls-3" d="M249.24,397.67c12.17,5.14,35.75,14.45,51.1,5.1,30.28-18.44,46.96-45.33,77.96-64.21,8.03-4.89,18.76-9.89,25.17-11.6,7.24-1.93,14.6-3.94,19.38-3.89,6.62.06,4.13,9.3,12.29,8.36l17.46-4.77c15.66-3.9,22.83,2.36,30.34,13.61l106.93,160.85c8.75,13.05,10.5,18.51,3.24,36-1.61,3.88-4.52,10.86-8.43,13.85-10.04,7.65-21.31,5.41-26.12,1.04-5.87-5.33-11.38-15.86-18.47-28.39-5.39-9.54-7.8-13.69-13.55-23.16-10.14-16.69-25.52-6.66-35.78-23.55-4.95-8.14.83-21.56-5.29-31.63-10.08-16.59-37.37-.7-49.02-18.17-10.57-15.85,6.29-32.81-2.37-47.06-8.78-14.45-45.29-15.61-59.52-6.95-30.39,18.51-55.12,70.12-71.1,73.77-20.27,4.64-48.52.23-50.86-11.67-2.51-12.78,5.89-104.94,5.89-104.94,1.41-9.1,2.95-16.02,4.52-19.09,16.39-32.13,30.26-49.09,21.46-65.15-8.9-16.25-20.42-6.79-27.03,1.66-4.28,5.47-33.23,48.56-49.24,63.69-19.46,18.4-51.38,6.13-66.22-18.29-6.56-10.79-10.94-30.61-17.99-42.21-14.22-23.41-26.11-23.12-54.08-13.71-21.15,7.11-39.59,23.74-30.73,43.4,9.44,20.96,33.96,32.22,50.32,41.02,40.52,21.8,49.52,26.5,49.52,26.5,0,0,94.15,42.65,110.21,49.6Z"/>
        <path class="cls-1" d="M249.24,397.67c12.17,5.14,35.75,14.45,51.1,5.1,30.28-18.44,46.96-45.33,77.96-64.21,8.03-4.89,18.76-9.89,25.17-11.6,7.24-1.93,14.6-3.94,19.38-3.89,6.62.06,4.13,9.3,12.29,8.36l17.46-4.77c15.66-3.9,22.83,2.36,30.34,13.61l106.93,160.85c8.75,13.05,10.5,18.51,3.24,36-1.61,3.88-4.52,10.86-8.43,13.85-10.04,7.65-21.31,5.41-26.12,1.04-5.87-5.33-11.38-15.86-18.47-28.39-5.39-9.54-7.8-13.69-13.55-23.16-10.14-16.69-25.52-6.66-35.78-23.55-4.95-8.14.83-21.56-5.29-31.63-10.08-16.59-37.37-.7-49.02-18.17-10.57-15.85,6.29-32.81-2.37-47.06-8.78-14.45-45.29-15.61-59.52-6.95-30.39,18.51-55.12,70.12-71.1,73.77-20.27,4.64-48.52.23-50.86-11.67-2.51-12.78,5.89-104.94,5.89-104.94,1.41-9.1,2.95-16.02,4.52-19.09,16.39-32.13,30.26-49.09,21.46-65.15-8.9-16.25-20.42-6.79-27.03,1.66-4.28,5.47-33.23,48.56-49.24,63.69-19.46,18.4-51.38,6.13-66.22-18.29-6.56-10.79-10.94-30.61-17.99-42.21-14.22-23.41-26.11-23.12-54.08-13.71-21.15,7.11-39.59,23.74-30.73,43.4,9.44,20.96,33.96,32.22,50.32,41.02,40.52,21.8,49.52,26.5,49.52,26.5,0,0,94.15,42.65,110.21,49.6Z"/>
      </g>
      <g>
        <path class="cls-5" d="M249.24,397.67c12.17,5.14,35.75,14.45,51.1,5.1,30.28-18.44,46.96-45.33,77.96-64.21,8.03-4.89,18.76-9.89,25.17-11.6,7.24-1.93,14.6-3.94,19.38-3.89,6.62.06,4.13,9.3,12.29,8.36l17.46-4.77c15.66-3.9,22.83,2.36,30.34,13.61l106.93,160.85c8.75,13.05,10.5,18.51,3.24,36-1.61,3.88-4.52,10.86-8.43,13.85-10.04,7.65-21.31,5.41-26.12,1.04-5.87-5.33-11.38-15.86-18.47-28.39-5.39-9.54-7.8-13.69-13.55-23.16-10.14-16.69-25.52-6.66-35.78-23.55-4.95-8.14.83-21.56-5.29-31.63-10.08-16.59-37.37-.7-49.02-18.17-10.57-15.85,6.29-32.81-2.37-47.06-8.78-14.45-45.29-15.61-59.52-6.95-30.39,18.51-55.12,70.12-71.1,73.77-20.27,4.64-48.52.23-50.86-11.67-2.51-12.78,5.89-104.94,5.89-104.94,1.41-9.1,2.95-16.02,4.52-19.09,16.39-32.13,30.26-49.09,21.46-65.15-8.9-16.25-20.42-6.79-27.03,1.66-4.28,5.47-33.23,48.56-49.24,63.69-19.46,18.4-51.38,6.13-66.22-18.29-6.56-10.79-10.94-30.61-17.99-42.21-14.22-23.41-26.11-23.12-54.08-13.71-21.15,7.11-39.59,23.74-30.73,43.4,9.44,20.96,33.96,32.22,50.32,41.02,40.52,21.8,49.52,26.5,49.52,26.5,0,0,94.15,42.65,110.21,49.6Z"/>
        <path class="cls-5" d="M249.24,397.67c12.17,5.14,35.75,14.45,51.1,5.1,30.28-18.44,46.96-45.33,77.96-64.21,8.03-4.89,18.76-9.89,25.17-11.6,7.24-1.93,14.6-3.94,19.38-3.89,6.62.06,4.13,9.3,12.29,8.36l17.46-4.77c15.66-3.9,22.83,2.36,30.34,13.61l106.93,160.85c8.75,13.05,10.5,18.51,3.24,36-1.61,3.88-4.52,10.86-8.43,13.85-10.04,7.65-21.31,5.41-26.12,1.04-5.87-5.33-11.38-15.86-18.47-28.39-5.39-9.54-7.8-13.69-13.55-23.16-10.14-16.69-25.52-6.66-35.78-23.55-4.95-8.14.83-21.56-5.29-31.63-10.08-16.59-37.37-.7-49.02-18.17-10.57-15.85,6.29-32.81-2.37-47.06-8.78-14.45-45.29-15.61-59.52-6.95-30.39,18.51-55.12,70.12-71.1,73.77-20.27,4.64-48.52.23-50.86-11.67-2.51-12.78,5.89-104.94,5.89-104.94,1.41-9.1,2.95-16.02,4.52-19.09,16.39-32.13,30.26-49.09,21.46-65.15-8.9-16.25-20.42-6.79-27.03,1.66-4.28,5.47-33.23,48.56-49.24,63.69-19.46,18.4-51.38,6.13-66.22-18.29-6.56-10.79-10.94-30.61-17.99-42.21-14.22-23.41-26.11-23.12-54.08-13.71-21.15,7.11-39.59,23.74-30.73,43.4,9.44,20.96,33.96,32.22,50.32,41.02,40.52,21.8,49.52,26.5,49.52,26.5,0,0,94.15,42.65,110.21,49.6Z"/>
      </g>
      <g>
        <path class="cls-4" d="M249.24,397.67c12.17,5.14,35.75,14.45,51.1,5.1,30.28-18.44,46.96-45.33,77.96-64.21,8.03-4.89,18.76-9.89,25.17-11.6,7.24-1.93,14.6-3.94,19.38-3.89,6.62.06,4.13,9.3,12.29,8.36l17.46-4.77c15.66-3.9,22.83,2.36,30.34,13.61l106.93,160.85c8.75,13.05,10.5,18.51,3.24,36-1.61,3.88-4.52,10.86-8.43,13.85-10.04,7.65-21.31,5.41-26.12,1.04-5.87-5.33-11.38-15.86-18.47-28.39-5.39-9.54-7.8-13.69-13.55-23.16-10.14-16.69-25.52-6.66-35.78-23.55-4.95-8.14.83-21.56-5.29-31.63-10.08-16.59-37.37-.7-49.02-18.17-10.57-15.85,6.29-32.81-2.37-47.06-8.78-14.45-45.29-15.61-59.52-6.95-30.39,18.51-55.12,70.12-71.1,73.77-20.27,4.64-48.52.23-50.86-11.67-2.51-12.78,5.89-104.94,5.89-104.94,1.41-9.1,2.95-16.02,4.52-19.09,16.39-32.13,30.26-49.09,21.46-65.15-8.9-16.25-20.42-6.79-27.03,1.66-4.28,5.47-33.23,48.56-49.24,63.69-19.46,18.4-51.38,6.13-66.22-18.29-6.56-10.79-10.94-30.61-17.99-42.21-14.22-23.41-26.11-23.12-54.08-13.71-21.15,7.11-39.59,23.74-30.73,43.4,9.44,20.96,33.96,32.22,50.32,41.02,40.52,21.8,49.52,26.5,49.52,26.5,0,0,94.15,42.65,110.21,49.6Z"/>
        <path class="cls-4" d="M249.24,397.67c12.17,5.14,35.75,14.45,51.1,5.1,30.28-18.44,46.96-45.33,77.96-64.21,8.03-4.89,18.76-9.89,25.17-11.6,7.24-1.93,14.6-3.94,19.38-3.89,6.62.06,4.13,9.3,12.29,8.36l17.46-4.77c15.66-3.9,22.83,2.36,30.34,13.61l106.93,160.85c8.75,13.05,10.5,18.51,3.24,36-1.61,3.88-4.52,10.86-8.43,13.85-10.04,7.65-21.31,5.41-26.12,1.04-5.87-5.33-11.38-15.86-18.47-28.39-5.39-9.54-7.8-13.69-13.55-23.16-10.14-16.69-25.52-6.66-35.78-23.55-4.95-8.14.83-21.56-5.29-31.63-10.08-16.59-37.37-.7-49.02-18.17-10.57-15.85,6.29-32.81-2.37-47.06-8.78-14.45-45.29-15.61-59.52-6.95-30.39,18.51-55.12,70.12-71.1,73.77-20.27,4.64-48.52.23-50.86-11.67-2.51-12.78,5.89-104.94,5.89-104.94,1.41-9.1,2.95-16.02,4.52-19.09,16.39-32.13,30.26-49.09,21.46-65.15-8.9-16.25-20.42-6.79-27.03,1.66-4.28,5.47-33.23,48.56-49.24,63.69-19.46,18.4-51.38,6.13-66.22-18.29-6.56-10.79-10.94-30.61-17.99-42.21-14.22-23.41-26.11-23.12-54.08-13.71-21.15,7.11-39.59,23.74-30.73,43.4,9.44,20.96,33.96,32.22,50.32,41.02,40.52,21.8,49.52,26.5,49.52,26.5,0,0,94.15,42.65,110.21,49.6Z"/>
      </g>
    </g>
  </g>
  <g id="arrow">
    <g>
      <path d="M496.76,397.63l4.79.74c.22.04.42,0,.6-.14s.29-.31.32-.53l.91-4.8,1.53.28-.92,4.79c-.11.64-.42,1.14-.95,1.52s-1.1.51-1.73.39l-4.78-.72.24-1.52Z"/>
      <path d="M490.7,389.14l4.79.74c.22.04.42,0,.6-.14s.29-.31.32-.53l.91-4.8,1.53.28-.92,4.79c-.11.64-.42,1.14-.95,1.52s-1.1.51-1.73.39l-4.78-.72.24-1.52Z"/>
      <path d="M493.73,393.38l4.79.74c.22.04.42,0,.6-.14s.29-.31.32-.53l.91-4.8,1.53.28-.92,4.79c-.11.64-.42,1.14-.95,1.52s-1.1.51-1.73.39l-4.78-.72.24-1.52Z"/>
    </g>
  </g>
  <g id="start">
    <g>
      <rect x="481.22" y="369.16" width="3.47" height="3.44" transform="translate(-125.6 349.34) rotate(-35.49)"/>
      <rect x="480.39" y="373.98" width="3.47" height="3.44" transform="translate(-128.55 349.75) rotate(-35.49)"/>
      <rect x="486.05" y="369.95" width="3.47" height="3.44" transform="translate(-125.16 352.29) rotate(-35.49)"/>
      <rect x="476.4" y="368.39" width="3.47" height="3.44" transform="translate(-126.04 346.4) rotate(-35.49)"/>
      <rect x="482.06" y="364.35" width="3.47" height="3.44" transform="translate(-122.65 348.94) rotate(-35.49)"/>
      <rect x="485.21" y="374.77" width="3.47" height="3.44" transform="translate(-128.11 352.7) rotate(-35.49)"/>
      <rect x="484.39" y="379.59" width="3.47" height="3.44" transform="translate(-131.06 353.11) rotate(-35.49)"/>
      <rect x="490.05" y="375.55" width="3.47" height="3.44" transform="translate(-127.67 355.65) rotate(-35.49)"/>
    </g>
  </g>
  <g id="grandstands">
    <g id="Suzuka">
      <g id="Q2">
        <rect idGrandstand="11001" class="cls-6" x="428.08" y="302.58" width="28.42" height="6.2"/>
      </g>
      <g id="Q1">
        <rect idGrandstand="11000" class="cls-6" x="447.97" y="299.99" width="6.2" height="27.39" transform="translate(128.93 758.77) rotate(-88.92)"/>
      </g>
      <g id="B1">
        <path idGrandstand="10845" class="cls-6" d="M558.06,565.36l-3.62,9.68c5.88,2.2,11.11,3,15.6,3,11.44,0,18.08-5.17,18.46-5.48l-6.46-8.07c-.08.07-8.81,6.55-23.98.87Z"/>
      </g>
      <g id="C">
        <rect idGrandstand="10996" class="cls-6" x="519.02" y="494.05" width="10.33" height="82.37" transform="translate(-212.09 396.84) rotate(-34.95)"/>
      </g>
      <g id="E">
        <path idGrandstand="10998" class="cls-6" d="M412.81,381.05l-16.23-3.33-3.05,9.42,14.03,2.91c1.53.23-.44,3.48-.79,4.33-1.39,2.28-2.69,3.89-5.05,6.59l7.78,6.8c3.01-3.44,5.13-8.07,6.52-11.07,2.69-8.2,6.07-13.87-3.2-15.65Z"/>
      </g>
      <g id="R">
        <rect idGrandstand="11002" class="cls-6" x="477.08" y="304.86" width="10.33" height="26.77" transform="translate(-33.03 579.65) rotate(-60.32)"/>
      </g>
      <g id="S">
        <rect idGrandstand="11003" class="cls-6" x="497.33" y="327.72" width="10.33" height="23.92" transform="translate(-104.04 339.28) rotate(-34.02)"/>
      </g>
      <g id="V1">
        <rect idGrandstand="10805" class="cls-6" x="530.98" y="348.49" width="10.33" height="82.34" transform="translate(-126.24 366.67) rotate(-34.02)"/>
      </g>
      <g id="A1">
        <rect idGrandstand="10825" class="cls-6" x="570.48" y="430.97" width="8" height="41.57" transform="translate(-154.43 398.81) rotate(-34.03)"/>
      </g>
      <g id="A2">
        <polygon idGrandstand="10835" class="cls-6" points="598.97 493.91 587.98 477.72 594.61 473.24 605.6 489.43 598.97 493.91"/>
      </g>
      <g id="I">
        <rect idGrandstand="10999" class="cls-6" x="219.79" y="242.13" width="36.29" height="10.33" transform="translate(-101.35 298.83) rotate(-54.74)"/>
      </g>
      <g id="P">
        <rect idGrandstand="27079" class="cls-6" x="325.01" y="344.97" width="31.64" height="9.01" transform="translate(-147.03 332.39) rotate(-43.71)"/>
      </g>
      <g id="M">
        <polygon idGrandstand="27069" class="cls-6" points="88 207.27 91.32 217.05 41.23 234.08 23.09 259.59 14.67 253.6 34.75 225.38 88 207.27"/>
      </g>
      <g id="D">
        <path idGrandstand="11015" class="cls-6" d="M467.19,460.48c2.09,4.48,2.35,8.45,2.37,8.89l-10.32.54s-.18-2.41-1.42-5.07c-.23-.5-.49-.97-.76-1.42l8.82-5.39c.48.78.92,1.6,1.31,2.45ZM454.26,460.22c.95.86,1.66,1.65,2.12,2.18l8.28-6.19c-2.44-3.26-5.6-5.69-9.4-7.22-1.2-.51-3.02-1.27-5.29-2.1-2.6-.96-4.01-1.33-5.89-2.01-4.73-1.7-7.13-2.57-8.92-3.55-2.33-1.28-5.64-3.5-8.99-7.46-6.81-9.73-3.91-20.74-3.76-21.19l-4.91-1.61-4.9-1.63c-.21.64-4.27,16.85,5.58,30.93,4.39,5.24,8.71,7.99,11.76,9.52,4.25,2.14,7.42,2.1,16.14,5.44,1.58.6,4.9,1.91,8.19,4.88Z"/>
      </g>
      <g id="D_Oasis" data-name="D Oasis">
        <path idGrandstand="22238" class="cls-6" d="M400.35,410.34l-.03,11.31,6.23.12.03-11.31-6.23-.12ZM400.28,433.49l6.23.12.03-11.31-6.23-.12-.03,11.31Z"/>
      </g>
      <g id="G">
        <path idGrandstand="20537" class="cls-6" d="M309.87,364.17l-30.58,22.29,3.65,5.01,30.58-22.29-3.65-5.01ZM284.3,393.06l3.65,5.01,30.58-22.29-3.65-5.01-30.58,22.29ZM272.55,345.72l-3.1,37.72-6.18-.51,3.1-37.72,6.18.51ZM274.64,345.73l-3.1,37.72,6.18.51,3.1-37.72-6.18-.51Z"/>
      </g>
      <g id="O">
        <rect idGrandstand="20557" class="cls-6" x="175.17" y="358.26" width="10.33" height="53.46" transform="translate(-244.6 398.01) rotate(-66.66)"/>
      </g>
      <g id="V2">
        <rect idGrandstand="10815" class="cls-6" x="542.95" y="340.28" width="10.33" height="82.34" transform="translate(-119.6 371.96) rotate(-34.02)"/>
      </g>
      <g id="VIP_Suite_Premium" data-name="VIP Suite Premium">
        <rect idGrandstand="24388" class="cls-6" x="569.73" y="380.03" width="3.92" height="31.27" transform="translate(-123.52 387.59) rotate(-34.02)"/>
      </g>
      <g id="B2">
        <path idGrandstand="10855" class="cls-6" d="M598.23,570.25l7.1,7.5c-.71.67-13.65,12.69-34.11,12.69-6.53,0-13.83-1.22-21.74-4.43l3.88-9.58c26.37,10.69,44.12-5.49,44.87-6.18ZM605,571.21l10.35-10.82-3.43-3.37-10.35,10.82,3.43,3.37Z"/>
      </g>
      <g id="H">
        <polygon idGrandstand="20547" class="cls-6" points="285.85 289.9 293.55 294.59 283.69 312.06 276 307.38 285.85 289.9"/>
      </g>
    </g>
  </g>
  <g id="misc">
    <g>
      <line class="cls-2" x1="443.06" y1="304.65" x2="443.06" y2="290.87"/>
      <line class="cls-2" x1="460.29" y1="312.57" x2="460.29" y2="299.48"/>
      <line class="cls-2" x1="557.28" y1="423.16" x2="586.11" y2="423.16"/>
      <line class="cls-2" x1="570.28" y1="415.57" x2="586.11" y2="415.57"/>
      <polyline class="cls-2" points="571.7 393.6 587.52 393.6 587.52 384.7"/>
    </g>
  </g>
  <g id="gs_names" data-name="gs names">
    <text class="cls-7" transform="translate(171.52 401.61)"><tspan x="0" y="0">O</tspan></text>
    <text class="cls-7" transform="translate(23.75 220.77)"><tspan x="0" y="0">M</tspan></text>
    <text class="cls-7" transform="translate(286.84 369.11)"><tspan x="0" y="0">G</tspan></text>
    <text class="cls-7" transform="translate(436.7 286.91)"><tspan x="0" y="0">Q2</tspan></text>
    <text class="cls-7" transform="translate(355.11 336.16)"><tspan x="0" y="0">P</tspan></text>
    <text class="cls-7" transform="translate(290.16 289.9)"><tspan x="0" y="0">H</tspan></text>
    <text class="cls-7" transform="translate(453.58 296.21)"><tspan x="0" y="0">Q1</tspan></text>
    <text class="cls-7" transform="translate(484.44 309.98)"><tspan x="0" y="0">R</tspan></text>
    <text class="cls-7" transform="translate(509.62 336.16)"><tspan x="0" y="0">S</tspan></text>
    <text class="cls-7" transform="translate(588.07 426.71)"><tspan x="0" y="0">V1</tspan></text>
    <text class="cls-7" transform="translate(588.07 415.57)"><tspan x="0" y="0">V2</tspan></text>
    <text class="cls-7" transform="translate(580.51 370.27)"><tspan x="0" y="0">VIP SUITE</tspan><tspan x="-.79" y="10.26">PREMIUM</tspan></text>
    <text class="cls-7" transform="translate(582.69 449.23)"><tspan x="0" y="0">A1</tspan></text>
    <text class="cls-7" transform="translate(603.66 479.7)"><tspan x="0" y="0">A2</tspan></text>
    <text class="cls-7" transform="translate(582.66 597.37)"><tspan x="0" y="0">B2</tspan></text>
    <text class="cls-7" transform="translate(504.86 545.12)"><tspan x="0" y="0">C</tspan></text>
    <text class="cls-7" transform="translate(392.28 398.52)"><tspan x="0" y="0">E</tspan></text>
    <text class="cls-7" transform="translate(418.2 456.84)"><tspan x="0" y="0">D</tspan></text>
    <text class="cls-7" transform="translate(360.51 425.68)"><tspan x="0" y="0">D-</tspan><tspan class="cls-8" x="10.46" y="0">O</tspan><tspan class="cls-9" x="16.88" y="0">A</tspan><tspan x="22.83" y="0">SIS</tspan></text>
    <text class="cls-7" transform="translate(585.35 567.71)"><tspan x="0" y="0">B1</tspan></text>
    <text class="cls-7" transform="translate(223.6 245.28)"><tspan x="0" y="0">I</tspan></text>
    <text class="cls-7" transform="translate(5.46 292.51)"><tspan x="0" y="0">N</tspan></text>
    <text class="cls-7" transform="translate(143.99 220.77)"><tspan x="0" y="0">L</tspan></text>
  </g>
</svg>