<?xml version="1.0" encoding="UTF-8"?>
<svg xmlns="http://www.w3.org/2000/svg" viewBox="0 0 630 800">
  <defs>
    <style>
      .cls-1 {
        stroke-linejoin: bevel;
        stroke-width: 3.5px;
      }

      .cls-1, .cls-2 {
        stroke: #f7f4f1;
      }

      .cls-1, .cls-2, .cls-3, .cls-4, .cls-5, .cls-6, .cls-7 {
        fill: none;
      }

      .cls-2 {
        stroke-width: 2px;
      }

      .cls-2, .cls-4, .cls-5 {
        stroke-miterlimit: 10;
      }

      .cls-3 {
        stroke-width: 4px;
      }

      .cls-3, .cls-6 {
        stroke: #fff;
      }

      .cls-8, .cls-9 {
        fill: #7d7d7d;
      }

      .cls-9, .cls-5 {
        fill-rule: evenodd;
      }

      .cls-4 {
        stroke-width: .5px;
      }

      .cls-4, .cls-7 {
        stroke: #000;
      }

      .cls-5 {
        stroke: #333;
      }

      .cls-6 {
        stroke-width: 1.8px;
      }

      .cls-7 {
        stroke-width: 14px;
      }
    
     #GA path, #GA rect, #GA polygon{
        mask: url(#mask-stripe)
      }

    </style>

   <pattern id="pattern-stripe" 
            width="4" height="4" 
            patternUnits="userSpaceOnUse"
            patternTransform="rotate(45)">
            <rect width="1.5" height="4" transform="translate(0,0)" fill="white"></rect>
    </pattern>
    <mask id="mask-stripe">
          <rect x="0" y="0" width="1000" height="1000" fill="url(#pattern-stripe)" />
    </mask>  
</defs>  

  <g id="GA">
    <path idGrandstand="18847" class="cls-8" d="M201.89,322.53s-.23-28.08-.33-37.12c-.09-8.01-3.81-15.84-4.14-16.51-8.17-14.5-24.09-16.17-24.25-16.18l.45-4.98c.76.07,18.72,1.87,28.19,18.77l.05.1c.19.37,4.58,9.23,4.69,18.74.1,9.04.33,37.14.33,37.14l-5,.04ZM226.39,269.3c-2.8-12.42-9.69-23.08-20.5-31.67l-3.11,3.91c9.89,7.86,16.2,17.57,18.74,28.85l4.88-1.1Z"/>
  </g>
  <g id="track">
    <g>
      <path class="cls-7" d="M332.03,545.69c11.19,0,24.75.12,27.84.34.62.04,2.78.13,4.77.18,2.07.06,5.28.18,7.08.27,4.38.22,14.64.68,18.4.81,12.17.43,55.95,1.31,75.55,1.52l11.15.13c5.1.06,9.53.11,11.68.14,1.22.01,3.18.02,5.6.02,5.29,0,12.08-.03,17.72-.07,16.73-.12,16.9-.12,17.78-.55.46-.22,1.05-.65,1.32-1.11.18-.3.37-.63.45-5.48.11-4.28.15-4.54.46-5.3.42-1.08,1.95-3.02,3.21-4.06,1.97-1.61,8.15-7.8,8.93-8.95.46-.69.98-1.8,1.2-2.53q.43-1.33.23-22.71c-.09-11.12-.36-29.19-.56-40.54-.42-21.39-.41-44.4.04-57.28.34-9.61.35-63.28.02-67.56-.68-8.28-1.84-12.97-4.6-18.6-2.26-4.58-5.06-8.48-8.82-12.26-1.55-1.57-8.7-7.86-11.55-10.2-1.53-1.24-47.78-41.55-51.02-44.48-3.05-2.74-5-4.14-7.14-4.14-.73,0-1.49.16-2.39.5-1.71.64-2.8,1.38-4.16,2.83-1.31,1.41-2.15,2.92-2.92,5.23-.83,2.49-1.05,4.41-.92,7.9.11,3.57.59,5.68,1.94,8.68,1.75,3.86,3.28,5.94,8.6,11.72,4.35,4.72,7.28,8.26,8.26,9.96,2.25,3.86,3.27,8.42,2.81,12.52-.52,4.8-2.44,9.62-5.71,14.32-1.72,2.47-2.74,3.58-4.72,5.16-6.68,5.32-12.73,7.42-23.12,8.02-1.69.1-12.77.23-24.7.28-24.46.12-40.99.34-47.81.64-5.17.22-17.28.87-18.87.99-.6.06-3.29.22-5.89.36-15,.84-22.73,1.03-55.19,1.35-9.9.11-26.61.31-37.13.45-11.89.16-19.42.26-23.63.26-4.53,0-5.26-.12-5.84-.29-2.28-.71-4.05-2.64-4.84-5.28-.23-.76-.26-3.43-.27-13.62-.02-7.2-.09-18.11-.17-24.32l-.12-11.48-.52-2.32c-1.53-6.9-4.07-13.22-7.13-17.78-4.02-6.01-9.46-11.08-15.73-14.66-5.72-3.27-11.78-5.14-19.06-5.91-.95-.08-3.03-.23-4.62-.29l-3.14-.14-1.13.77c-.21.13-1.01.65-1.25,1.05-.11.14-.23.3-.42,3.28-.13,2.29-.22,2.68-.62,3.66-.59,1.46-1.38,2.52-2.79,3.81-1.85,1.68-3.69,2.42-5.98,2.42-.85,0-1.76-.1-2.79-.31-1.93-.39-2.46-.63-11.3-5.29-7.75-4.08-9.36-4.93-10.61-4.93-.59,0-1.01.21-1.35.38-1.29.63-2.89,2.53-3.58,3.9-.39.74-.86,2.14-1.1,3.07-.57,2.17-.61,3.7-.72,14.7-.05,3.87-.18,10.84-.29,15.33-.14,5.09-.17,12.58-.1,21.07.25,29.61-.71,39-5.41,52.84-3.53,10.42-7.57,17.24-13.93,23.54-3.49,3.46-7.12,6.04-11.79,8.37-.92.46-5.57,2.38-10.36,4.28-4.39,1.75-10.44,4.2-13.02,5.28-14.25,6-22.03,11.47-28.69,20.18-4.3,5.63-6.91,11.25-8.46,18.21-.73,3.27-2.98,16.17-3.66,20.9l-.05.33c-1.09,7.66-1.16,8.12,1.01,9.13l.1.04c.7.33,1.96.76,2.87.99,3.09.78,6.89,2.47,12.67,5.65,3.43,1.89,9.13,4.76,13.26,6.66,4.68,2.17,10.1,4.86,13.19,6.54,1.42.78,4.35,2.35,6.5,3.49,2.19,1.17,7.29,3.99,11.35,6.3,4.12,2.33,8.22,4.63,9.11,5.12.83.43,2.13,1.15,3.1,1.69l1.29.72c.76.43,1.51.85,1.89,1.06.55.3,2.06,1.14,3.35,1.89,7.65,4.36,10.07,5.68,15.25,8.27,9.81,4.91,19.75,9.29,26.59,11.71,3.14,1.11,25.06,7.74,31.28,9.47,8.49,2.37,26.85,6.46,33.88,7.54,3.33.52,17.62,2.52,20.84,2.91,5.84.74,18.52,1.63,27.15,1.9,2.19.07,5.9.11,10.73.11,12.55,0,29.98-.23,43.38-.58,3.83-.09,10.2-.15,17.92-.15Z"/>
      <path class="cls-6" d="M332.03,545.69c11.19,0,24.75.12,27.84.34.62.04,2.78.13,4.77.18,2.07.06,5.28.18,7.08.27,4.38.22,14.64.68,18.4.81,12.17.43,55.95,1.31,75.55,1.52l11.15.13c5.1.06,9.53.11,11.68.14,1.22.01,3.18.02,5.6.02,5.29,0,12.08-.03,17.72-.07,16.73-.12,16.9-.12,17.78-.55.46-.22,1.05-.65,1.32-1.11.18-.3.37-.63.45-5.48.11-4.28.15-4.54.46-5.3.42-1.08,1.95-3.02,3.21-4.06,1.97-1.61,8.15-7.8,8.93-8.95.46-.69.98-1.8,1.2-2.53q.43-1.33.23-22.71c-.09-11.12-.36-29.19-.56-40.54-.42-21.39-.41-44.4.04-57.28.34-9.61.35-63.28.02-67.56-.68-8.28-1.84-12.97-4.6-18.6-2.26-4.58-5.06-8.48-8.82-12.26-1.55-1.57-8.7-7.86-11.55-10.2-1.53-1.24-47.78-41.55-51.02-44.48-3.05-2.74-5-4.14-7.14-4.14-.73,0-1.49.16-2.39.5-1.71.64-2.8,1.38-4.16,2.83-1.31,1.41-2.15,2.92-2.92,5.23-.83,2.49-1.05,4.41-.92,7.9.11,3.57.59,5.68,1.94,8.68,1.75,3.86,3.28,5.94,8.6,11.72,4.35,4.72,7.28,8.26,8.26,9.96,2.25,3.86,3.27,8.42,2.81,12.52-.52,4.8-2.44,9.62-5.71,14.32-1.72,2.47-2.74,3.58-4.72,5.16-6.68,5.32-12.73,7.42-23.12,8.02-1.69.1-12.77.23-24.7.28-24.46.12-40.99.34-47.81.64-5.17.22-17.28.87-18.87.99-.6.06-3.29.22-5.89.36-15,.84-22.73,1.03-55.19,1.35-9.9.11-26.61.31-37.13.45-11.89.16-19.42.26-23.63.26-4.53,0-5.26-.12-5.84-.29-2.28-.71-4.05-2.64-4.84-5.28-.23-.76-.26-3.43-.27-13.62-.02-7.2-.09-18.11-.17-24.32l-.12-11.48-.52-2.32c-1.53-6.9-4.07-13.22-7.13-17.78-4.02-6.01-9.46-11.08-15.73-14.66-5.72-3.27-11.78-5.14-19.06-5.91-.95-.08-3.03-.23-4.62-.29l-3.14-.14-1.13.77c-.21.13-1.01.65-1.25,1.05-.11.14-.23.3-.42,3.28-.13,2.29-.22,2.68-.62,3.66-.59,1.46-1.38,2.52-2.79,3.81-1.85,1.68-3.69,2.42-5.98,2.42-.85,0-1.76-.1-2.79-.31-1.93-.39-2.46-.63-11.3-5.29-7.75-4.08-9.36-4.93-10.61-4.93-.59,0-1.01.21-1.35.38-1.29.63-2.89,2.53-3.58,3.9-.39.74-.86,2.14-1.1,3.07-.57,2.17-.61,3.7-.72,14.7-.05,3.87-.18,10.84-.29,15.33-.14,5.09-.17,12.58-.1,21.07.25,29.61-.71,39-5.41,52.84-3.53,10.42-7.57,17.24-13.93,23.54-3.49,3.46-7.12,6.04-11.79,8.37-.92.46-5.57,2.38-10.36,4.28-4.39,1.75-10.44,4.2-13.02,5.28-14.25,6-22.03,11.47-28.69,20.18-4.3,5.63-6.91,11.25-8.46,18.21-.73,3.27-2.98,16.17-3.66,20.9l-.05.33c-1.09,7.66-1.16,8.12,1.01,9.13l.1.04c.7.33,1.96.76,2.87.99,3.09.78,6.89,2.47,12.67,5.65,3.43,1.89,9.13,4.76,13.26,6.66,4.68,2.17,10.1,4.86,13.19,6.54,1.42.78,4.35,2.35,6.5,3.49,2.19,1.17,7.29,3.99,11.35,6.3,4.12,2.33,8.22,4.63,9.11,5.12.83.43,2.13,1.15,3.1,1.69l1.29.72c.76.43,1.51.85,1.89,1.06.55.3,2.06,1.14,3.35,1.89,7.65,4.36,10.07,5.68,15.25,8.27,9.81,4.91,19.75,9.29,26.59,11.71,3.14,1.11,25.06,7.74,31.28,9.47,8.49,2.37,26.85,6.46,33.88,7.54,3.33.52,17.62,2.52,20.84,2.91,5.84.74,18.52,1.63,27.15,1.9,2.19.07,5.9.11,10.73.11,12.55,0,29.98-.23,43.38-.58,3.83-.09,10.2-.15,17.92-.15Z"/>
    </g>
  </g>
  <g id="start">
    <g>
      <g>
        <g>
          <path d="M472.82,255.56c-.09-.65.06-1.24.46-1.77s.92-.83,1.57-.92l4.78-.75.29,1.57-4.83.8c-.21.03-.37.13-.5.29-.13.17-.17.35-.13.57l.58,4.86-1.63.25-.57-4.89Z"/>
          <path d="M479.63,252.17l.23,1.52-4.79.74c-.22.03-.39.13-.53.31-.13.18-.18.38-.14.6l.58,4.85-1.54.19-.57-4.84c-.09-.64.06-1.22.45-1.73.39-.52.9-.82,1.53-.9l4.78-.75M479.71,252.06l-.1.02-4.78.75c-.65.08-1.19.4-1.6.94-.4.54-.56,1.15-.47,1.81l.57,4.84v.1s.11-.01.11-.01l1.54-.19h.1s-.01-.11-.01-.11l-.58-4.85c-.04-.2,0-.38.12-.53.12-.16.27-.25.46-.27l4.79-.74.1-.02v-.1s-.24-1.52-.24-1.52v-.1h-.01Z"/>
        </g>
        <g>
          <path d="M481.15,261.83c-.09-.65.06-1.24.46-1.77.4-.53.92-.83,1.57-.92l4.78-.75.28,1.57-4.83.8c-.21.03-.37.12-.5.29-.13.17-.17.35-.13.57l.58,4.86-1.63.25-.57-4.89Z"/>
          <path d="M487.96,258.45l.23,1.52-4.79.74c-.22.03-.39.13-.53.31-.13.18-.18.38-.14.6l.58,4.85-1.54.19-.57-4.84c-.09-.64.06-1.22.45-1.73.39-.52.9-.82,1.53-.9l4.78-.75M488.04,258.33l-.1.02-4.78.75c-.65.08-1.19.4-1.6.94-.4.54-.56,1.15-.47,1.81l.57,4.84v.1s.11-.01.11-.01l1.54-.19h.1s-.01-.11-.01-.11l-.58-4.85c-.04-.2,0-.38.12-.53.12-.16.27-.25.46-.27l4.79-.74.1-.02v-.1s-.24-1.52-.24-1.52v-.1h-.01Z"/>
        </g>
        <g>
          <path d="M476.98,258.7c-.09-.65.06-1.24.46-1.77s.92-.83,1.57-.92l4.78-.75.29,1.56-4.83.8c-.21.03-.37.12-.5.29-.13.17-.17.35-.13.57l.58,4.86-1.63.25-.57-4.89Z"/>
          <path d="M483.79,255.31l.23,1.52-4.79.74c-.22.03-.39.13-.53.31-.13.18-.18.38-.14.6l.58,4.85-1.54.19-.57-4.84c-.09-.64.06-1.22.45-1.73.39-.52.9-.82,1.53-.9l4.78-.75M483.88,255.2l-.1.02-4.78.75c-.65.08-1.19.4-1.6.94-.4.54-.56,1.15-.47,1.81l.57,4.84v.1s.11-.01.11-.01l1.54-.19h.1s-.01-.11-.01-.11l-.58-4.85c-.04-.2,0-.38.12-.53.12-.16.27-.25.46-.27l4.79-.74.1-.02v-.1s-.24-1.52-.24-1.52v-.1h-.01Z"/>
        </g>
        <g>
          <rect x="499.14" y="273.55" width="3.47" height="3.44" transform="translate(-38.18 465.19) rotate(-48.2)"/>
          <rect x="498.89" y="268.67" width="3.47" height="3.44" transform="translate(-34.62 463.38) rotate(-48.2)"/>
          <rect x="494.26" y="273.85" width="3.47" height="3.44" transform="translate(-40.03 461.65) rotate(-48.2)"/>
          <rect x="504.01" y="273.24" width="3.47" height="3.44" transform="translate(-36.33 468.73) rotate(-48.2)"/>
          <rect x="499.38" y="278.43" width="3.47" height="3.44" transform="translate(-41.73 467) rotate(-48.2)"/>
          <rect x="494.01" y="268.96" width="3.47" height="3.44" transform="translate(-36.47 459.84) rotate(-48.2)"/>
          <rect x="493.76" y="264.08" width="3.47" height="3.44" transform="translate(-32.91 458.02) rotate(-48.2)"/>
          <rect x="489.13" y="269.26" width="3.47" height="3.44" transform="translate(-38.32 456.3) rotate(-48.2)"/>
        </g>
      </g>
      <g>
        <g>
          <path class="cls-3" d="M472.82,255.56c-.09-.65.06-1.24.46-1.77s.92-.83,1.57-.92l4.78-.75.29,1.57-4.83.8c-.21.03-.37.13-.5.29-.13.17-.17.35-.13.57l.58,4.86-1.63.25-.57-4.89Z"/>
          <path class="cls-3" d="M479.63,252.17l.23,1.52-4.79.74c-.22.03-.39.13-.53.31-.13.18-.18.38-.14.6l.58,4.85-1.54.19-.57-4.84c-.09-.64.06-1.22.45-1.73.39-.52.9-.82,1.53-.9l4.78-.75M479.71,252.06l-.1.02-4.78.75c-.65.08-1.19.4-1.6.94-.4.54-.56,1.15-.47,1.81l.57,4.84v.1s.11-.01.11-.01l1.54-.19h.1s-.01-.11-.01-.11l-.58-4.85c-.04-.2,0-.38.12-.53.12-.16.27-.25.46-.27l4.79-.74.1-.02v-.1s-.24-1.52-.24-1.52v-.1h-.01Z"/>
        </g>
        <g>
          <path class="cls-3" d="M481.15,261.83c-.09-.65.06-1.24.46-1.77.4-.53.92-.83,1.57-.92l4.78-.75.28,1.57-4.83.8c-.21.03-.37.12-.5.29-.13.17-.17.35-.13.57l.58,4.86-1.63.25-.57-4.89Z"/>
          <path class="cls-3" d="M487.96,258.45l.23,1.52-4.79.74c-.22.03-.39.13-.53.31-.13.18-.18.38-.14.6l.58,4.85-1.54.19-.57-4.84c-.09-.64.06-1.22.45-1.73.39-.52.9-.82,1.53-.9l4.78-.75M488.04,258.33l-.1.02-4.78.75c-.65.08-1.19.4-1.6.94-.4.54-.56,1.15-.47,1.81l.57,4.84v.1s.11-.01.11-.01l1.54-.19h.1s-.01-.11-.01-.11l-.58-4.85c-.04-.2,0-.38.12-.53.12-.16.27-.25.46-.27l4.79-.74.1-.02v-.1s-.24-1.52-.24-1.52v-.1h-.01Z"/>
        </g>
        <g>
          <path class="cls-3" d="M476.98,258.7c-.09-.65.06-1.24.46-1.77s.92-.83,1.57-.92l4.78-.75.29,1.56-4.83.8c-.21.03-.37.12-.5.29-.13.17-.17.35-.13.57l.58,4.86-1.63.25-.57-4.89Z"/>
          <path class="cls-3" d="M483.79,255.31l.23,1.52-4.79.74c-.22.03-.39.13-.53.31-.13.18-.18.38-.14.6l.58,4.85-1.54.19-.57-4.84c-.09-.64.06-1.22.45-1.73.39-.52.9-.82,1.53-.9l4.78-.75M483.88,255.2l-.1.02-4.78.75c-.65.08-1.19.4-1.6.94-.4.54-.56,1.15-.47,1.81l.57,4.84v.1s.11-.01.11-.01l1.54-.19h.1s-.01-.11-.01-.11l-.58-4.85c-.04-.2,0-.38.12-.53.12-.16.27-.25.46-.27l4.79-.74.1-.02v-.1s-.24-1.52-.24-1.52v-.1h-.01Z"/>
        </g>
        <g>
          <rect class="cls-3" x="499.14" y="273.55" width="3.47" height="3.44" transform="translate(-38.18 465.19) rotate(-48.2)"/>
          <rect class="cls-3" x="498.89" y="268.67" width="3.47" height="3.44" transform="translate(-34.62 463.38) rotate(-48.2)"/>
          <rect class="cls-3" x="494.26" y="273.85" width="3.47" height="3.44" transform="translate(-40.03 461.65) rotate(-48.2)"/>
          <rect class="cls-3" x="504.01" y="273.24" width="3.47" height="3.44" transform="translate(-36.33 468.73) rotate(-48.2)"/>
          <rect class="cls-3" x="499.38" y="278.43" width="3.47" height="3.44" transform="translate(-41.73 467) rotate(-48.2)"/>
          <rect class="cls-3" x="494.01" y="268.96" width="3.47" height="3.44" transform="translate(-36.47 459.84) rotate(-48.2)"/>
          <rect class="cls-3" x="493.76" y="264.08" width="3.47" height="3.44" transform="translate(-32.91 458.02) rotate(-48.2)"/>
          <rect class="cls-3" x="489.13" y="269.26" width="3.47" height="3.44" transform="translate(-38.32 456.3) rotate(-48.2)"/>
        </g>
      </g>
      <g>
        <g>
          <path d="M472.82,255.56c-.09-.65.06-1.24.46-1.77s.92-.83,1.57-.92l4.78-.75.29,1.57-4.83.8c-.21.03-.37.13-.5.29-.13.17-.17.35-.13.57l.58,4.86-1.63.25-.57-4.89Z"/>
          <path d="M479.63,252.17l.23,1.52-4.79.74c-.22.03-.39.13-.53.31-.13.18-.18.38-.14.6l.58,4.85-1.54.19-.57-4.84c-.09-.64.06-1.22.45-1.73.39-.52.9-.82,1.53-.9l4.78-.75M479.71,252.06l-.1.02-4.78.75c-.65.08-1.19.4-1.6.94-.4.54-.56,1.15-.47,1.81l.57,4.84v.1s.11-.01.11-.01l1.54-.19h.1s-.01-.11-.01-.11l-.58-4.85c-.04-.2,0-.38.12-.53.12-.16.27-.25.46-.27l4.79-.74.1-.02v-.1s-.24-1.52-.24-1.52v-.1h-.01Z"/>
        </g>
        <g>
          <path d="M481.15,261.83c-.09-.65.06-1.24.46-1.77.4-.53.92-.83,1.57-.92l4.78-.75.28,1.57-4.83.8c-.21.03-.37.12-.5.29-.13.17-.17.35-.13.57l.58,4.86-1.63.25-.57-4.89Z"/>
          <path d="M487.96,258.45l.23,1.52-4.79.74c-.22.03-.39.13-.53.31-.13.18-.18.38-.14.6l.58,4.85-1.54.19-.57-4.84c-.09-.64.06-1.22.45-1.73.39-.52.9-.82,1.53-.9l4.78-.75M488.04,258.33l-.1.02-4.78.75c-.65.08-1.19.4-1.6.94-.4.54-.56,1.15-.47,1.81l.57,4.84v.1s.11-.01.11-.01l1.54-.19h.1s-.01-.11-.01-.11l-.58-4.85c-.04-.2,0-.38.12-.53.12-.16.27-.25.46-.27l4.79-.74.1-.02v-.1s-.24-1.52-.24-1.52v-.1h-.01Z"/>
        </g>
        <g>
          <path d="M476.98,258.7c-.09-.65.06-1.24.46-1.77s.92-.83,1.57-.92l4.78-.75.29,1.56-4.83.8c-.21.03-.37.12-.5.29-.13.17-.17.35-.13.57l.58,4.86-1.63.25-.57-4.89Z"/>
          <path d="M483.79,255.31l.23,1.52-4.79.74c-.22.03-.39.13-.53.31-.13.18-.18.38-.14.6l.58,4.85-1.54.19-.57-4.84c-.09-.64.06-1.22.45-1.73.39-.52.9-.82,1.53-.9l4.78-.75M483.88,255.2l-.1.02-4.78.75c-.65.08-1.19.4-1.6.94-.4.54-.56,1.15-.47,1.81l.57,4.84v.1s.11-.01.11-.01l1.54-.19h.1s-.01-.11-.01-.11l-.58-4.85c-.04-.2,0-.38.12-.53.12-.16.27-.25.46-.27l4.79-.74.1-.02v-.1s-.24-1.52-.24-1.52v-.1h-.01Z"/>
        </g>
        <g>
          <rect x="499.14" y="273.55" width="3.47" height="3.44" transform="translate(-38.18 465.19) rotate(-48.2)"/>
          <rect x="498.89" y="268.67" width="3.47" height="3.44" transform="translate(-34.62 463.38) rotate(-48.2)"/>
          <rect x="494.26" y="273.85" width="3.47" height="3.44" transform="translate(-40.03 461.65) rotate(-48.2)"/>
          <rect x="504.01" y="273.24" width="3.47" height="3.44" transform="translate(-36.33 468.73) rotate(-48.2)"/>
          <rect x="499.38" y="278.43" width="3.47" height="3.44" transform="translate(-41.73 467) rotate(-48.2)"/>
          <rect x="494.01" y="268.96" width="3.47" height="3.44" transform="translate(-36.47 459.84) rotate(-48.2)"/>
          <rect x="493.76" y="264.08" width="3.47" height="3.44" transform="translate(-32.91 458.02) rotate(-48.2)"/>
          <rect x="489.13" y="269.26" width="3.47" height="3.44" transform="translate(-38.32 456.3) rotate(-48.2)"/>
        </g>
      </g>
    </g>
  </g>
  <g id="grandstands">
    <g id="grandstands-2" data-name="grandstands">
      <path idGrandstand="13232323" class="cls-9" d="M471.55,261.54l-6.33,6.93-7.79-6.86c-.53-.46-.59-1.32-.13-1.85l4.49-5.01c.46-.53,1.32-.59,1.85-.13l7.92,6.93h0ZM516.15,302.32c.46-.53.4-1.39-.07-1.78l-44.47-38.86-6.33,6.93,44.54,38.93c.53.46,1.39.4,1.85-.13l4.49-5.08h0Z"/>
      <path idGrandstand="23398" class="cls-8" d="M528.41,383.53h6.4c.73,0,1.32.59,1.32,1.32v12.54c0,.73-.59,1.32-1.32,1.32h-6.4c-.73,0-1.32-.59-1.32-1.32v-12.54c0-.73.59-1.32,1.32-1.32ZM527.09,336.36v29.89c0,.73.59,1.32,1.32,1.32h6.4c.73,0,1.32-.59,1.32-1.32v-29.89c0-.73-.59-1.32-1.32-1.32h-6.4c-.73,0-1.32.59-1.32,1.32Z"/>
      <path idGrandstand="23388" class="cls-8" d="M145.09,228.45v8.78c0,.73-.59,1.32-1.32,1.32h-5.74c-.73,0-1.32-.59-1.32-1.32v-8.78c0-.73.59-1.32,1.32-1.32h5.74c.73,0,1.32.59,1.32,1.32ZM173.59,223.31l-.99,5.67c-.13.73.33,1.39,1.06,1.52l12.01,2.11c.73.13,1.39-.33,1.52-1.06l.99-5.67c.13-.73-.33-1.39-1.06-1.52l-12.01-2.11c-.73-.13-1.39.4-1.52,1.06ZM190.28,226.94l-2.44,5.21c-.26.66,0,1.45.66,1.78l11.08,5.15c.66.26,1.45,0,1.78-.66l2.44-5.21c.26-.66,0-1.45-.66-1.78l-11.08-5.15c-.66-.33-1.45-.07-1.78.66ZM231.01,272.11h-5.74c-.73,0-1.32.59-1.32,1.32v49.94c0,.73.59,1.32,1.32,1.32h5.81c.73,0,1.32-.59,1.32-1.32v-49.94c0-.73-.59-1.32-1.39-1.32ZM170.03,229.11v-3.43c0-.73-.59-1.32-1.32-1.32h-15.51c-.73,0-1.32.59-1.32,1.32v3.43c0,.73.59,1.32,1.32,1.32h15.51c.73,0,1.32-.59,1.32-1.32Z"/>
      <path idGrandstand="23378" class="cls-8" d="M483.62,238.58l46.38,41.17c.53.46.59,1.32.13,1.85l-4.49,5.08c-.46.53-1.32.59-1.85.13l-46.38-41.17c-.53-.46-.59-1.32-.13-1.85l4.49-5.08c.46-.59,1.32-.66,1.85-.13Z"/>
      <path idGrandstand="2222222" class="cls-8" d="M456.04,340.39h10.69c.73,0,1.32.59,1.32,1.32v6.93c0,.73-.59,1.32-1.32,1.32h-10.69c-.73,0-1.32-.59-1.32-1.32v-6.93c0-.73.59-1.32,1.32-1.32ZM269.95,341.91l-.13,15.64c0,.73.59,1.32,1.32,1.32l37.87.07c.73,0,1.32-.59,1.32-1.32l.13-15.64c0-.73-.59-1.32-1.32-1.32l-37.87-.07c-.73,0-1.32.59-1.32,1.32ZM434.43,539.64v-7.72c0-.66-.59-1.32-1.32-1.32h-15.11c-.73,0-1.32.59-1.32,1.32v7.72c0,.73.59,1.32,1.32,1.32h15.11c.73.07,1.32-.53,1.32-1.32ZM364.57,343.3v6.93c0,.73.59,1.32,1.32,1.32h11.88c.73,0,1.32-.59,1.32-1.32v-6.93c0-.73-.59-1.32-1.32-1.32h-11.88c-.73,0-1.32.59-1.32,1.32ZM440.21,341.71v6.93c0,.73.59,1.32,1.32,1.32h9.37c.73,0,1.32-.59,1.32-1.32v-6.93c0-.73-.59-1.32-1.32-1.32h-9.37c-.73,0-1.32.59-1.32,1.32ZM264.01,556.73l-.13,15.64c0,.73.59,1.32,1.32,1.32l30.61.07c.73,0,1.32-.59,1.32-1.32l.13-15.64c0-.73-.59-1.32-1.32-1.32l-30.61-.07c-.73,0-1.32.59-1.32,1.32ZM434.5,570.52c.73,0,1.39-.59,1.32-1.32l-.13-7.72c0-.73-.59-1.32-1.32-1.32l-59.31-1.52c-.73,0-1.32.59-1.32,1.32l.13,7.79c0,.73.59,1.32,1.32,1.32l59.31,1.45h0ZM534.58,421.61h-6.93c-.73,0-1.32.59-1.32,1.32v39.06c0,.73.59,1.32,1.32,1.32h6.93c.73,0,1.32-.59,1.32-1.32v-39.13c0-.73-.59-1.32-1.32-1.25Z"/>
      <rect idGrandstand="26449" class="cls-8" x="470.25" y="312.97" width="25" height="10.95" rx="1.49" ry="1.49" transform="translate(4.14 643.09) rotate(-67.56)"/>
      <path idGrandstand="26439" class="cls-8" d="M359.6,352.81h-24.4c-.82,0-1.49-.67-1.49-1.49v-7.97c0-.82.67-1.49,1.49-1.49h24.4c.82,0,1.49.67,1.49,1.49v7.97c0,.82-.67,1.49-1.49,1.49ZM410.43,350.97v-7.97c0-.82-.67-1.49-1.49-1.49h-24.4c-.82,0-1.49.67-1.49,1.49v7.97c0,.82.67,1.49,1.49,1.49h24.4c.82,0,1.49-.67,1.49-1.49Z"/>
      <g id="Skybox">
        <path idGrandstand="22728" class="cls-8" d="M504.85,255.94c0-2.43,1.97-4.41,4.41-4.41s4.41,1.97,4.41,4.41-1.97,4.41-4.41,4.41-4.41-1.97-4.41-4.41Z"/>
      </g>
      <g id="Trackside_Tavern_at_Paddock_Club_Rooftop" data-name="Trackside Tavern at Paddock Club Rooftop">
        <path idGrandstand="27339" class="cls-8" d="M480,288.32c0-2.43,1.97-4.41,4.41-4.41s4.41,1.97,4.41,4.41-1.97,4.41-4.41,4.41-4.41-1.97-4.41-4.41Z"/>
      </g>
    </g>
  </g>
  <g id="misc">
    <path class="cls-5" d="M173.39,284.24c0,12.67-10.29,22.96-22.96,22.96s-22.96-10.29-22.96-22.96,10.29-22.96,22.96-22.96,22.96,10.29,22.96,22.96"/>
  </g>
  <g id="gs_names" data-name="gs names">
    <g>
      <path class="cls-8" d="M495.19,316.66h-1.01v1.78h-1.24v-6.12h2.25c1.45,0,2.18.71,2.18,2.12,0,.71-.18,1.26-.55,1.64-.37.38-.91.57-1.62.57ZM494.19,315.6h1c.62,0,.93-.38.93-1.15,0-.38-.08-.65-.22-.81-.15-.17-.38-.25-.7-.25h-1v2.21Z"/>
      <path class="cls-8" d="M497.56,318.45l1.38-6.12h2.36l1.38,6.12h-1.24l-.24-1.11h-2.14l-.24,1.11h-1.24ZM499.9,313.35l-.62,2.91h1.67l-.62-2.91h-.43Z"/>
      <path class="cls-8" d="M505.55,318.45h-2.06v-6.12h2.06c.53,0,.96.06,1.31.17.34.11.61.29.8.55.19.25.32.55.39.9.07.35.11.79.11,1.35s-.03,1.01-.1,1.37c-.07.36-.19.69-.37.97s-.45.49-.8.62c-.35.13-.79.19-1.33.19ZM506.86,316.02c.01-.19.02-.46.02-.8s-.01-.61-.04-.81c-.02-.2-.08-.39-.17-.56s-.22-.28-.4-.35c-.18-.06-.42-.09-.72-.09h-.82v3.96h.82c.45,0,.78-.11.98-.34.17-.19.28-.52.32-1.01Z"/>
      <path class="cls-8" d="M511.29,318.45h-2.06v-6.12h2.06c.53,0,.96.06,1.31.17.34.11.61.29.8.55.19.25.32.55.39.9.07.35.11.79.11,1.35s-.03,1.01-.1,1.37c-.07.36-.19.69-.37.97s-.45.49-.8.62c-.35.13-.79.19-1.33.19ZM512.6,316.02c.01-.19.02-.46.02-.8s-.01-.61-.04-.81c-.02-.2-.08-.39-.17-.56s-.22-.28-.4-.35c-.18-.06-.42-.09-.72-.09h-.82v3.96h.82c.45,0,.78-.11.98-.34.17-.19.28-.52.32-1.01Z"/>
      <path class="cls-8" d="M519.21,317.79c-.38.51-1.04.76-1.97.76s-1.58-.25-1.97-.76c-.38-.51-.57-1.3-.57-2.38s.19-1.88.57-2.41c.38-.53,1.04-.79,1.97-.79s1.59.26,1.97.79.57,1.33.57,2.41-.19,1.87-.57,2.38ZM516.25,317c.18.31.51.47.99.47s.82-.16,1-.47c.18-.32.27-.84.27-1.58s-.09-1.28-.27-1.62-.51-.5-.99-.5-.81.17-.99.5c-.18.34-.27.87-.27,1.62s.09,1.27.27,1.58Z"/>
      <path class="cls-8" d="M524.72,318.35c-.64.14-1.21.21-1.72.21s-.92-.06-1.22-.19c-.31-.13-.55-.33-.72-.6-.17-.28-.29-.6-.36-.97-.07-.37-.1-.84-.1-1.4,0-1.18.17-2.01.5-2.47s.95-.7,1.84-.7c.52,0,1.11.08,1.79.24l-.04.99c-.59-.09-1.09-.13-1.48-.13s-.67.05-.84.16c-.17.11-.29.3-.37.6s-.12.79-.12,1.5.08,1.2.25,1.47.5.41.99.41,1.02-.04,1.58-.13l.03,1.02Z"/>
      <path class="cls-8" d="M526.97,318.45h-1.24v-6.12h1.24v2.69l.83-.09,1.01-2.6h1.41l-1.33,3.07,1.37,3.05h-1.43l-1.03-2.44-.83.09v2.35Z"/>
      <path class="cls-8" d="M506.65,326.35c-.64.14-1.21.21-1.72.21s-.92-.06-1.22-.19c-.31-.13-.55-.33-.72-.6-.17-.28-.29-.6-.36-.97-.07-.37-.1-.84-.1-1.4,0-1.18.17-2.01.5-2.47s.95-.7,1.84-.7c.52,0,1.11.08,1.79.24l-.04.99c-.59-.09-1.09-.13-1.48-.13s-.67.05-.84.16c-.17.11-.29.3-.37.6s-.12.79-.12,1.5.08,1.2.25,1.47.5.41.99.41,1.02-.04,1.58-.13l.03,1.02Z"/>
      <path class="cls-8" d="M511.14,326.45h-3.48v-6.12h1.24v5.02h2.24v1.1Z"/>
      <path class="cls-8" d="M513.04,324.4c0,.71.36,1.07,1.09,1.07s1.09-.36,1.09-1.07v-4.08h1.24v4.05c0,.75-.19,1.3-.58,1.65-.39.35-.97.53-1.75.53s-1.36-.18-1.75-.53c-.39-.35-.58-.9-.58-1.65v-4.05h1.24v4.08Z"/>
      <path class="cls-8" d="M517.74,320.33h2.4c.64,0,1.11.13,1.43.38s.48.67.48,1.24c0,.34-.05.61-.15.81-.1.2-.28.38-.52.54.27.11.47.28.6.5s.19.52.19.9c0,.59-.17,1.04-.52,1.32-.35.29-.84.43-1.47.43h-2.44v-6.12ZM520.08,321.39h-1.1v1.46h1.11c.47,0,.7-.24.7-.73s-.24-.73-.71-.73ZM520.12,323.89h-1.13v1.49h1.13c.27,0,.47-.05.6-.16.13-.11.19-.31.19-.59,0-.49-.26-.74-.79-.74Z"/>
    </g>
    <g>
      <path class="cls-8" d="M520.62,242.61c-.65,0-.98.22-.98.65,0,.19.08.34.24.44.16.1.54.25,1.14.44.6.19,1.02.41,1.26.65s.36.62.36,1.12c0,.64-.2,1.13-.59,1.46-.39.33-.9.5-1.53.5-.47,0-1.04-.07-1.72-.22l-.32-.06.13-.96c.8.11,1.42.16,1.84.16.64,0,.95-.26.95-.79,0-.19-.07-.34-.22-.45-.15-.11-.44-.23-.88-.35-.7-.2-1.19-.43-1.47-.71-.29-.27-.43-.65-.43-1.14,0-.61.19-1.07.56-1.37.37-.3.88-.45,1.53-.45.44,0,1.01.06,1.69.18l.32.06-.1.98c-.85-.1-1.44-.14-1.79-.14Z"/>
      <path class="cls-8" d="M524.88,247.76h-1.24v-6.12h1.24v2.69l.83-.09,1.01-2.6h1.41l-1.33,3.07,1.37,3.05h-1.43l-1.03-2.44-.83.09v2.35Z"/>
      <path class="cls-8" d="M531.44,247.76h-1.24v-2.47l-1.89-3.65h1.38l1.12,2.44,1.12-2.44h1.38l-1.87,3.65v2.47Z"/>
      <path class="cls-8" d="M533.98,241.64h2.4c.64,0,1.11.13,1.43.38s.48.67.48,1.24c0,.34-.05.61-.15.81-.1.2-.28.38-.52.54.27.11.47.28.6.5s.19.52.19.9c0,.59-.17,1.04-.52,1.32-.35.29-.84.43-1.47.43h-2.44v-6.12ZM536.32,242.71h-1.1v1.46h1.11c.47,0,.7-.24.7-.73s-.24-.73-.71-.73ZM536.36,245.21h-1.13v1.49h1.13c.27,0,.47-.05.6-.16.13-.11.19-.31.19-.59,0-.49-.26-.74-.79-.74Z"/>
      <path class="cls-8" d="M543.7,247.11c-.38.51-1.04.76-1.97.76s-1.58-.25-1.97-.76c-.38-.51-.57-1.3-.57-2.38s.19-1.88.57-2.41c.38-.53,1.04-.79,1.97-.79s1.59.26,1.97.79.57,1.33.57,2.41-.19,1.87-.57,2.38ZM540.74,246.32c.18.31.51.47.99.47s.82-.16,1-.47c.18-.32.27-.84.27-1.58s-.09-1.28-.27-1.62-.51-.5-.99-.5-.81.17-.99.5c-.18.34-.27.87-.27,1.62s.09,1.27.27,1.58Z"/>
      <path class="cls-8" d="M545.97,241.64l1.13,2.25,1.16-2.25h1.29l-1.76,3.12,1.76,3h-1.38l-1.13-2.12-1.16,2.12h-1.29l1.76-2.93-1.76-3.19h1.38Z"/>
    </g>
    <g>
      <polyline class="cls-2" points="443.96 279.45 453.65 287.9 480 287.9"/>
      <polyline class="cls-4" points="443.96 279.45 453.65 287.9 480 287.9"/>
    </g>
    <g>
      <g>
        <path class="cls-8" d="M377.8,263.78v-1.1h4.5v1.1h-1.62v5.02h-1.24v-5.02h-1.64Z"/>
        <path class="cls-8" d="M384.33,266.75v2.05h-1.24v-6.12h2.38c1.44,0,2.16.67,2.16,2.02,0,.8-.3,1.39-.9,1.76l.87,2.34h-1.36l-.71-2.05h-1.2ZM386.14,265.41c.14-.18.22-.42.22-.71s-.08-.53-.23-.7c-.15-.17-.37-.26-.66-.26h-1.13v1.94h1.15c.29,0,.51-.09.66-.27Z"/>
        <path class="cls-8" d="M388.08,268.8l1.38-6.12h2.36l1.38,6.12h-1.24l-.24-1.11h-2.14l-.24,1.11h-1.24ZM390.42,263.7l-.62,2.91h1.67l-.62-2.91h-.43Z"/>
        <path class="cls-8" d="M397.81,268.7c-.64.14-1.21.21-1.72.21s-.92-.06-1.22-.19c-.31-.13-.55-.33-.72-.6-.17-.28-.29-.6-.36-.97-.07-.37-.1-.84-.1-1.4,0-1.18.17-2.01.5-2.47s.95-.7,1.84-.7c.52,0,1.11.08,1.79.24l-.04.99c-.59-.09-1.09-.13-1.48-.13s-.67.05-.84.16c-.17.11-.29.3-.37.6s-.12.79-.12,1.5.08,1.2.25,1.47.5.41.99.41,1.02-.04,1.58-.13l.03,1.02Z"/>
        <path class="cls-8" d="M400.06,268.8h-1.24v-6.12h1.24v2.69l.83-.09,1.01-2.6h1.41l-1.33,3.07,1.37,3.05h-1.43l-1.03-2.44-.83.09v2.35Z"/>
        <path class="cls-8" d="M406.04,263.65c-.65,0-.98.22-.98.65,0,.19.08.34.24.44.16.1.54.25,1.14.44.6.19,1.02.41,1.26.65s.36.62.36,1.12c0,.64-.2,1.13-.59,1.46-.39.33-.9.5-1.53.5-.47,0-1.04-.07-1.72-.22l-.32-.06.13-.96c.8.11,1.42.16,1.84.16.64,0,.95-.26.95-.79,0-.19-.07-.34-.22-.45-.15-.11-.44-.23-.88-.35-.7-.2-1.19-.43-1.47-.71-.29-.27-.43-.65-.43-1.14,0-.61.19-1.07.56-1.37.37-.3.88-.45,1.53-.45.44,0,1.01.06,1.69.18l.32.06-.1.98c-.85-.1-1.44-.14-1.79-.14Z"/>
        <path class="cls-8" d="M409.05,268.8v-6.12h1.24v6.12h-1.24Z"/>
        <path class="cls-8" d="M413.68,268.8h-2.06v-6.12h2.06c.53,0,.96.06,1.31.17.34.11.61.29.8.55.19.25.32.55.39.9.07.35.11.79.11,1.35s-.03,1.01-.1,1.37c-.07.36-.19.69-.37.97s-.45.49-.8.62c-.35.13-.79.19-1.33.19ZM414.99,266.37c.01-.19.02-.46.02-.8s-.01-.61-.04-.81c-.02-.2-.08-.39-.17-.56s-.22-.28-.4-.35c-.18-.06-.42-.09-.72-.09h-.82v3.96h.82c.45,0,.78-.11.98-.34.17-.19.28-.52.32-1.01Z"/>
        <path class="cls-8" d="M417.37,268.8v-6.12h3.96v1.08h-2.72v1.43h2.18v1.06h-2.18v1.47h2.72v1.08h-3.96Z"/>
        <path class="cls-8" d="M423.78,263.78v-1.1h4.5v1.1h-1.62v5.02h-1.24v-5.02h-1.64Z"/>
        <path class="cls-8" d="M428.22,268.8l1.38-6.12h2.36l1.38,6.12h-1.24l-.24-1.11h-2.14l-.24,1.11h-1.24ZM430.56,263.7l-.62,2.91h1.67l-.62-2.91h-.43Z"/>
        <path class="cls-8" d="M437.22,262.68h1.31l-1.42,6.12h-2.29l-1.42-6.12h1.31l1.06,5.04h.41l1.06-5.04Z"/>
        <path class="cls-8" d="M439.33,268.8v-6.12h3.96v1.08h-2.72v1.43h2.18v1.06h-2.18v1.47h2.72v1.08h-3.96Z"/>
        <path class="cls-8" d="M445.56,266.75v2.05h-1.24v-6.12h2.38c1.44,0,2.16.67,2.16,2.02,0,.8-.3,1.39-.9,1.76l.87,2.34h-1.36l-.71-2.05h-1.2ZM447.37,265.41c.14-.18.22-.42.22-.71s-.08-.53-.23-.7c-.15-.17-.37-.26-.66-.26h-1.13v1.94h1.15c.29,0,.51-.09.66-.27Z"/>
        <path class="cls-8" d="M449.9,268.8v-6.12h2.1l1.48,5.04h.09v-5.04h1.24v6.12h-2.04l-1.53-5.04h-.09v5.04h-1.24Z"/>
        <path class="cls-8" d="M383.27,276.8l1.38-6.12h2.36l1.38,6.12h-1.24l-.24-1.11h-2.14l-.24,1.11h-1.24ZM385.61,271.7l-.62,2.91h1.67l-.62-2.91h-.43Z"/>
        <path class="cls-8" d="M388.32,271.78v-1.1h4.5v1.1h-1.62v5.02h-1.24v-5.02h-1.64Z"/>
        <path class="cls-8" d="M397.83,275.02h-1.01v1.78h-1.24v-6.12h2.25c1.45,0,2.18.71,2.18,2.12,0,.71-.18,1.26-.55,1.64-.37.38-.91.57-1.62.57ZM396.82,273.95h1c.62,0,.93-.38.93-1.15,0-.38-.08-.65-.22-.81-.15-.17-.38-.25-.7-.25h-1v2.21Z"/>
        <path class="cls-8" d="M400.2,276.8l1.38-6.12h2.36l1.38,6.12h-1.24l-.24-1.11h-2.14l-.24,1.11h-1.24ZM402.54,271.7l-.62,2.91h1.67l-.62-2.91h-.43Z"/>
        <path class="cls-8" d="M408.19,276.8h-2.06v-6.12h2.06c.53,0,.96.06,1.31.17.34.11.61.29.8.55.19.25.32.55.39.9.07.35.11.79.11,1.35s-.03,1.01-.1,1.37c-.07.36-.19.69-.37.97s-.45.49-.8.62c-.35.13-.79.19-1.33.19ZM409.49,274.37c.01-.19.02-.46.02-.8s-.01-.61-.04-.81c-.02-.2-.08-.39-.17-.56s-.22-.28-.4-.35c-.18-.06-.42-.09-.72-.09h-.82v3.96h.82c.45,0,.78-.11.98-.34.17-.19.28-.52.32-1.01Z"/>
        <path class="cls-8" d="M413.93,276.8h-2.06v-6.12h2.06c.53,0,.96.06,1.31.17.34.11.61.29.8.55.19.25.32.55.39.9.07.35.11.79.11,1.35s-.03,1.01-.1,1.37c-.07.36-.19.69-.37.97s-.45.49-.8.62c-.35.13-.79.19-1.33.19ZM415.23,274.37c.01-.19.02-.46.02-.8s-.01-.61-.04-.81c-.02-.2-.08-.39-.17-.56s-.22-.28-.4-.35c-.18-.06-.42-.09-.72-.09h-.82v3.96h.82c.45,0,.78-.11.98-.34.17-.19.28-.52.32-1.01Z"/>
        <path class="cls-8" d="M421.84,276.15c-.38.51-1.04.76-1.97.76s-1.58-.25-1.97-.76c-.38-.51-.57-1.3-.57-2.38s.19-1.88.57-2.41c.38-.53,1.04-.79,1.97-.79s1.59.26,1.97.79.57,1.33.57,2.41-.19,1.87-.57,2.38ZM418.88,275.35c.18.31.51.47.99.47s.82-.16,1-.47c.18-.32.27-.84.27-1.58s-.09-1.28-.27-1.62-.51-.5-.99-.5-.81.17-.99.5c-.18.34-.27.87-.27,1.62s.09,1.27.27,1.58Z"/>
        <path class="cls-8" d="M427.36,276.7c-.64.14-1.21.21-1.72.21s-.92-.06-1.22-.19c-.31-.13-.55-.33-.72-.6-.17-.28-.29-.6-.36-.97-.07-.37-.1-.84-.1-1.4,0-1.18.17-2.01.5-2.47s.95-.7,1.84-.7c.52,0,1.11.08,1.79.24l-.04.99c-.59-.09-1.09-.13-1.48-.13s-.67.05-.84.16c-.17.11-.29.3-.37.6s-.12.79-.12,1.5.08,1.2.25,1.47.5.41.99.41,1.02-.04,1.58-.13l.03,1.02Z"/>
        <path class="cls-8" d="M429.61,276.8h-1.24v-6.12h1.24v2.69l.83-.09,1.01-2.6h1.41l-1.33,3.07,1.37,3.05h-1.43l-1.03-2.44-.83.09v2.35Z"/>
        <path class="cls-8" d="M439.56,276.7c-.64.14-1.21.21-1.72.21s-.92-.06-1.22-.19c-.31-.13-.55-.33-.72-.6-.17-.28-.29-.6-.36-.97-.07-.37-.1-.84-.1-1.4,0-1.18.17-2.01.5-2.47s.95-.7,1.84-.7c.52,0,1.11.08,1.79.24l-.04.99c-.59-.09-1.09-.13-1.48-.13s-.67.05-.84.16c-.17.11-.29.3-.37.6s-.12.79-.12,1.5.08,1.2.25,1.47.5.41.99.41,1.02-.04,1.58-.13l.03,1.02Z"/>
        <path class="cls-8" d="M444.05,276.8h-3.48v-6.12h1.24v5.02h2.24v1.1Z"/>
        <path class="cls-8" d="M445.96,274.75c0,.71.36,1.07,1.09,1.07s1.09-.36,1.09-1.07v-4.08h1.24v4.05c0,.75-.19,1.3-.58,1.65-.39.35-.97.53-1.75.53s-1.36-.18-1.75-.53c-.39-.35-.58-.9-.58-1.65v-4.05h1.24v4.08Z"/>
        <path class="cls-8" d="M450.66,270.68h2.4c.64,0,1.11.13,1.43.38s.48.67.48,1.24c0,.34-.05.61-.15.81-.1.2-.28.38-.52.54.27.11.47.28.6.5s.19.52.19.9c0,.59-.17,1.04-.52,1.32-.35.29-.84.43-1.47.43h-2.44v-6.12ZM453,271.74h-1.1v1.46h1.11c.47,0,.7-.24.7-.73s-.24-.73-.71-.73ZM453.03,274.24h-1.13v1.49h1.13c.27,0,.47-.05.6-.16.13-.11.19-.31.19-.59,0-.49-.26-.74-.79-.74Z"/>
        <path class="cls-8" d="M413.5,282.75v2.05h-1.24v-6.12h2.38c1.44,0,2.16.67,2.16,2.02,0,.8-.3,1.39-.9,1.76l.87,2.34h-1.36l-.71-2.05h-1.2ZM415.3,281.41c.14-.18.22-.42.22-.71s-.08-.53-.23-.7c-.15-.17-.37-.26-.66-.26h-1.13v1.94h1.15c.29,0,.51-.09.66-.27Z"/>
        <path class="cls-8" d="M422.07,284.15c-.38.51-1.04.76-1.97.76s-1.58-.25-1.97-.76c-.38-.51-.57-1.3-.57-2.38s.19-1.88.57-2.41c.38-.53,1.04-.79,1.97-.79s1.59.26,1.97.79.57,1.33.57,2.41-.19,1.87-.57,2.38ZM419.11,283.35c.18.31.51.47.99.47s.82-.16,1-.47c.18-.32.27-.84.27-1.58s-.09-1.28-.27-1.62-.51-.5-.99-.5-.81.17-.99.5c-.18.34-.27.87-.27,1.62s.09,1.27.27,1.58Z"/>
        <path class="cls-8" d="M427.94,284.15c-.38.51-1.04.76-1.97.76s-1.58-.25-1.97-.76c-.38-.51-.57-1.3-.57-2.38s.19-1.88.57-2.41c.38-.53,1.04-.79,1.97-.79s1.59.26,1.97.79.57,1.33.57,2.41-.19,1.87-.57,2.38ZM424.98,283.35c.18.31.51.47.99.47s.82-.16,1-.47c.18-.32.27-.84.27-1.58s-.09-1.28-.27-1.62-.51-.5-.99-.5-.81.17-.99.5c-.18.34-.27.87-.27,1.62s.09,1.27.27,1.58Z"/>
        <path class="cls-8" d="M429.57,284.8v-6.12h3.91v1.08h-2.66v1.8h2.18v1.08h-2.18v2.16h-1.24Z"/>
        <path class="cls-8" d="M433.8,279.78v-1.1h4.5v1.1h-1.62v5.02h-1.24v-5.02h-1.64Z"/>
        <path class="cls-8" d="M443.26,284.15c-.38.51-1.04.76-1.97.76s-1.58-.25-1.97-.76c-.38-.51-.57-1.3-.57-2.38s.19-1.88.57-2.41c.38-.53,1.04-.79,1.97-.79s1.59.26,1.97.79.57,1.33.57,2.41-.19,1.87-.57,2.38ZM440.3,283.35c.18.31.51.47.99.47s.82-.16,1-.47c.18-.32.27-.84.27-1.58s-.09-1.28-.27-1.62-.51-.5-.99-.5-.81.17-.99.5c-.18.34-.27.87-.27,1.62s.09,1.27.27,1.58Z"/>
        <path class="cls-8" d="M447.15,283.02h-1.01v1.78h-1.24v-6.12h2.25c1.45,0,2.18.71,2.18,2.12,0,.71-.18,1.26-.55,1.64-.37.38-.91.57-1.62.57ZM446.14,281.95h1c.62,0,.93-.38.93-1.15,0-.38-.08-.65-.22-.81-.15-.17-.38-.25-.7-.25h-1v2.21Z"/>
        <path class="cls-8" d="M450.25,279.71v-.71h1.8v.71h-.37v2.1h-.79v-2.1h-.64ZM452.28,281.82v-2.82h.93l.37,1.42.41-1.42h.92v2.82h-.74v-1.57l-.31,1.38h-.5l-.34-1.38v1.57h-.74Z"/>
      </g>
      <g>
        <path class="cls-1" d="M377.8,263.78v-1.1h4.5v1.1h-1.62v5.02h-1.24v-5.02h-1.64Z"/>
        <path class="cls-1" d="M384.33,266.75v2.05h-1.24v-6.12h2.38c1.44,0,2.16.67,2.16,2.02,0,.8-.3,1.39-.9,1.76l.87,2.34h-1.36l-.71-2.05h-1.2ZM386.14,265.41c.14-.18.22-.42.22-.71s-.08-.53-.23-.7c-.15-.17-.37-.26-.66-.26h-1.13v1.94h1.15c.29,0,.51-.09.66-.27Z"/>
        <path class="cls-1" d="M388.08,268.8l1.38-6.12h2.36l1.38,6.12h-1.24l-.24-1.11h-2.14l-.24,1.11h-1.24ZM390.42,263.7l-.62,2.91h1.67l-.62-2.91h-.43Z"/>
        <path class="cls-1" d="M397.81,268.7c-.64.14-1.21.21-1.72.21s-.92-.06-1.22-.19c-.31-.13-.55-.33-.72-.6-.17-.28-.29-.6-.36-.97-.07-.37-.1-.84-.1-1.4,0-1.18.17-2.01.5-2.47s.95-.7,1.84-.7c.52,0,1.11.08,1.79.24l-.04.99c-.59-.09-1.09-.13-1.48-.13s-.67.05-.84.16c-.17.11-.29.3-.37.6s-.12.79-.12,1.5.08,1.2.25,1.47.5.41.99.41,1.02-.04,1.58-.13l.03,1.02Z"/>
        <path class="cls-1" d="M400.06,268.8h-1.24v-6.12h1.24v2.69l.83-.09,1.01-2.6h1.41l-1.33,3.07,1.37,3.05h-1.43l-1.03-2.44-.83.09v2.35Z"/>
        <path class="cls-1" d="M406.04,263.65c-.65,0-.98.22-.98.65,0,.19.08.34.24.44.16.1.54.25,1.14.44.6.19,1.02.41,1.26.65s.36.62.36,1.12c0,.64-.2,1.13-.59,1.46-.39.33-.9.5-1.53.5-.47,0-1.04-.07-1.72-.22l-.32-.06.13-.96c.8.11,1.42.16,1.84.16.64,0,.95-.26.95-.79,0-.19-.07-.34-.22-.45-.15-.11-.44-.23-.88-.35-.7-.2-1.19-.43-1.47-.71-.29-.27-.43-.65-.43-1.14,0-.61.19-1.07.56-1.37.37-.3.88-.45,1.53-.45.44,0,1.01.06,1.69.18l.32.06-.1.98c-.85-.1-1.44-.14-1.79-.14Z"/>
        <path class="cls-1" d="M409.05,268.8v-6.12h1.24v6.12h-1.24Z"/>
        <path class="cls-1" d="M413.68,268.8h-2.06v-6.12h2.06c.53,0,.96.06,1.31.17.34.11.61.29.8.55.19.25.32.55.39.9.07.35.11.79.11,1.35s-.03,1.01-.1,1.37c-.07.36-.19.69-.37.97s-.45.49-.8.62c-.35.13-.79.19-1.33.19ZM414.99,266.37c.01-.19.02-.46.02-.8s-.01-.61-.04-.81c-.02-.2-.08-.39-.17-.56s-.22-.28-.4-.35c-.18-.06-.42-.09-.72-.09h-.82v3.96h.82c.45,0,.78-.11.98-.34.17-.19.28-.52.32-1.01Z"/>
        <path class="cls-1" d="M417.37,268.8v-6.12h3.96v1.08h-2.72v1.43h2.18v1.06h-2.18v1.47h2.72v1.08h-3.96Z"/>
        <path class="cls-1" d="M423.78,263.78v-1.1h4.5v1.1h-1.62v5.02h-1.24v-5.02h-1.64Z"/>
        <path class="cls-1" d="M428.22,268.8l1.38-6.12h2.36l1.38,6.12h-1.24l-.24-1.11h-2.14l-.24,1.11h-1.24ZM430.56,263.7l-.62,2.91h1.67l-.62-2.91h-.43Z"/>
        <path class="cls-1" d="M437.22,262.68h1.31l-1.42,6.12h-2.29l-1.42-6.12h1.31l1.06,5.04h.41l1.06-5.04Z"/>
        <path class="cls-1" d="M439.33,268.8v-6.12h3.96v1.08h-2.72v1.43h2.18v1.06h-2.18v1.47h2.72v1.08h-3.96Z"/>
        <path class="cls-1" d="M445.56,266.75v2.05h-1.24v-6.12h2.38c1.44,0,2.16.67,2.16,2.02,0,.8-.3,1.39-.9,1.76l.87,2.34h-1.36l-.71-2.05h-1.2ZM447.37,265.41c.14-.18.22-.42.22-.71s-.08-.53-.23-.7c-.15-.17-.37-.26-.66-.26h-1.13v1.94h1.15c.29,0,.51-.09.66-.27Z"/>
        <path class="cls-1" d="M449.9,268.8v-6.12h2.1l1.48,5.04h.09v-5.04h1.24v6.12h-2.04l-1.53-5.04h-.09v5.04h-1.24Z"/>
        <path class="cls-1" d="M383.27,276.8l1.38-6.12h2.36l1.38,6.12h-1.24l-.24-1.11h-2.14l-.24,1.11h-1.24ZM385.61,271.7l-.62,2.91h1.67l-.62-2.91h-.43Z"/>
        <path class="cls-1" d="M388.32,271.78v-1.1h4.5v1.1h-1.62v5.02h-1.24v-5.02h-1.64Z"/>
        <path class="cls-1" d="M397.83,275.02h-1.01v1.78h-1.24v-6.12h2.25c1.45,0,2.18.71,2.18,2.12,0,.71-.18,1.26-.55,1.64-.37.38-.91.57-1.62.57ZM396.82,273.95h1c.62,0,.93-.38.93-1.15,0-.38-.08-.65-.22-.81-.15-.17-.38-.25-.7-.25h-1v2.21Z"/>
        <path class="cls-1" d="M400.2,276.8l1.38-6.12h2.36l1.38,6.12h-1.24l-.24-1.11h-2.14l-.24,1.11h-1.24ZM402.54,271.7l-.62,2.91h1.67l-.62-2.91h-.43Z"/>
        <path class="cls-1" d="M408.19,276.8h-2.06v-6.12h2.06c.53,0,.96.06,1.31.17.34.11.61.29.8.55.19.25.32.55.39.9.07.35.11.79.11,1.35s-.03,1.01-.1,1.37c-.07.36-.19.69-.37.97s-.45.49-.8.62c-.35.13-.79.19-1.33.19ZM409.49,274.37c.01-.19.02-.46.02-.8s-.01-.61-.04-.81c-.02-.2-.08-.39-.17-.56s-.22-.28-.4-.35c-.18-.06-.42-.09-.72-.09h-.82v3.96h.82c.45,0,.78-.11.98-.34.17-.19.28-.52.32-1.01Z"/>
        <path class="cls-1" d="M413.93,276.8h-2.06v-6.12h2.06c.53,0,.96.06,1.31.17.34.11.61.29.8.55.19.25.32.55.39.9.07.35.11.79.11,1.35s-.03,1.01-.1,1.37c-.07.36-.19.69-.37.97s-.45.49-.8.62c-.35.13-.79.19-1.33.19ZM415.23,274.37c.01-.19.02-.46.02-.8s-.01-.61-.04-.81c-.02-.2-.08-.39-.17-.56s-.22-.28-.4-.35c-.18-.06-.42-.09-.72-.09h-.82v3.96h.82c.45,0,.78-.11.98-.34.17-.19.28-.52.32-1.01Z"/>
        <path class="cls-1" d="M421.84,276.15c-.38.51-1.04.76-1.97.76s-1.58-.25-1.97-.76c-.38-.51-.57-1.3-.57-2.38s.19-1.88.57-2.41c.38-.53,1.04-.79,1.97-.79s1.59.26,1.97.79.57,1.33.57,2.41-.19,1.87-.57,2.38ZM418.88,275.35c.18.31.51.47.99.47s.82-.16,1-.47c.18-.32.27-.84.27-1.58s-.09-1.28-.27-1.62-.51-.5-.99-.5-.81.17-.99.5c-.18.34-.27.87-.27,1.62s.09,1.27.27,1.58Z"/>
        <path class="cls-1" d="M427.36,276.7c-.64.14-1.21.21-1.72.21s-.92-.06-1.22-.19c-.31-.13-.55-.33-.72-.6-.17-.28-.29-.6-.36-.97-.07-.37-.1-.84-.1-1.4,0-1.18.17-2.01.5-2.47s.95-.7,1.84-.7c.52,0,1.11.08,1.79.24l-.04.99c-.59-.09-1.09-.13-1.48-.13s-.67.05-.84.16c-.17.11-.29.3-.37.6s-.12.79-.12,1.5.08,1.2.25,1.47.5.41.99.41,1.02-.04,1.58-.13l.03,1.02Z"/>
        <path class="cls-1" d="M429.61,276.8h-1.24v-6.12h1.24v2.69l.83-.09,1.01-2.6h1.41l-1.33,3.07,1.37,3.05h-1.43l-1.03-2.44-.83.09v2.35Z"/>
        <path class="cls-1" d="M439.56,276.7c-.64.14-1.21.21-1.72.21s-.92-.06-1.22-.19c-.31-.13-.55-.33-.72-.6-.17-.28-.29-.6-.36-.97-.07-.37-.1-.84-.1-1.4,0-1.18.17-2.01.5-2.47s.95-.7,1.84-.7c.52,0,1.11.08,1.79.24l-.04.99c-.59-.09-1.09-.13-1.48-.13s-.67.05-.84.16c-.17.11-.29.3-.37.6s-.12.79-.12,1.5.08,1.2.25,1.47.5.41.99.41,1.02-.04,1.58-.13l.03,1.02Z"/>
        <path class="cls-1" d="M444.05,276.8h-3.48v-6.12h1.24v5.02h2.24v1.1Z"/>
        <path class="cls-1" d="M445.96,274.75c0,.71.36,1.07,1.09,1.07s1.09-.36,1.09-1.07v-4.08h1.24v4.05c0,.75-.19,1.3-.58,1.65-.39.35-.97.53-1.75.53s-1.36-.18-1.75-.53c-.39-.35-.58-.9-.58-1.65v-4.05h1.24v4.08Z"/>
        <path class="cls-1" d="M450.66,270.68h2.4c.64,0,1.11.13,1.43.38s.48.67.48,1.24c0,.34-.05.61-.15.81-.1.2-.28.38-.52.54.27.11.47.28.6.5s.19.52.19.9c0,.59-.17,1.04-.52,1.32-.35.29-.84.43-1.47.43h-2.44v-6.12ZM453,271.74h-1.1v1.46h1.11c.47,0,.7-.24.7-.73s-.24-.73-.71-.73ZM453.03,274.24h-1.13v1.49h1.13c.27,0,.47-.05.6-.16.13-.11.19-.31.19-.59,0-.49-.26-.74-.79-.74Z"/>
        <path class="cls-1" d="M413.5,282.75v2.05h-1.24v-6.12h2.38c1.44,0,2.16.67,2.16,2.02,0,.8-.3,1.39-.9,1.76l.87,2.34h-1.36l-.71-2.05h-1.2ZM415.3,281.41c.14-.18.22-.42.22-.71s-.08-.53-.23-.7c-.15-.17-.37-.26-.66-.26h-1.13v1.94h1.15c.29,0,.51-.09.66-.27Z"/>
        <path class="cls-1" d="M422.07,284.15c-.38.51-1.04.76-1.97.76s-1.58-.25-1.97-.76c-.38-.51-.57-1.3-.57-2.38s.19-1.88.57-2.41c.38-.53,1.04-.79,1.97-.79s1.59.26,1.97.79.57,1.33.57,2.41-.19,1.87-.57,2.38ZM419.11,283.35c.18.31.51.47.99.47s.82-.16,1-.47c.18-.32.27-.84.27-1.58s-.09-1.28-.27-1.62-.51-.5-.99-.5-.81.17-.99.5c-.18.34-.27.87-.27,1.62s.09,1.27.27,1.58Z"/>
        <path class="cls-1" d="M427.94,284.15c-.38.51-1.04.76-1.97.76s-1.58-.25-1.97-.76c-.38-.51-.57-1.3-.57-2.38s.19-1.88.57-2.41c.38-.53,1.04-.79,1.97-.79s1.59.26,1.97.79.57,1.33.57,2.41-.19,1.87-.57,2.38ZM424.98,283.35c.18.31.51.47.99.47s.82-.16,1-.47c.18-.32.27-.84.27-1.58s-.09-1.28-.27-1.62-.51-.5-.99-.5-.81.17-.99.5c-.18.34-.27.87-.27,1.62s.09,1.27.27,1.58Z"/>
        <path class="cls-1" d="M429.57,284.8v-6.12h3.91v1.08h-2.66v1.8h2.18v1.08h-2.18v2.16h-1.24Z"/>
        <path class="cls-1" d="M433.8,279.78v-1.1h4.5v1.1h-1.62v5.02h-1.24v-5.02h-1.64Z"/>
        <path class="cls-1" d="M443.26,284.15c-.38.51-1.04.76-1.97.76s-1.58-.25-1.97-.76c-.38-.51-.57-1.3-.57-2.38s.19-1.88.57-2.41c.38-.53,1.04-.79,1.97-.79s1.59.26,1.97.79.57,1.33.57,2.41-.19,1.87-.57,2.38ZM440.3,283.35c.18.31.51.47.99.47s.82-.16,1-.47c.18-.32.27-.84.27-1.58s-.09-1.28-.27-1.62-.51-.5-.99-.5-.81.17-.99.5c-.18.34-.27.87-.27,1.62s.09,1.27.27,1.58Z"/>
        <path class="cls-1" d="M447.15,283.02h-1.01v1.78h-1.24v-6.12h2.25c1.45,0,2.18.71,2.18,2.12,0,.71-.18,1.26-.55,1.64-.37.38-.91.57-1.62.57ZM446.14,281.95h1c.62,0,.93-.38.93-1.15,0-.38-.08-.65-.22-.81-.15-.17-.38-.25-.7-.25h-1v2.21Z"/>
        <path class="cls-1" d="M450.25,279.71v-.71h1.8v.71h-.37v2.1h-.79v-2.1h-.64ZM452.28,281.82v-2.82h.93l.37,1.42.41-1.42h.92v2.82h-.74v-1.57l-.31,1.38h-.5l-.34-1.38v1.57h-.74Z"/>
      </g>
      <g>
        <path class="cls-8" d="M377.8,263.78v-1.1h4.5v1.1h-1.62v5.02h-1.24v-5.02h-1.64Z"/>
        <path class="cls-8" d="M384.33,266.75v2.05h-1.24v-6.12h2.38c1.44,0,2.16.67,2.16,2.02,0,.8-.3,1.39-.9,1.76l.87,2.34h-1.36l-.71-2.05h-1.2ZM386.14,265.41c.14-.18.22-.42.22-.71s-.08-.53-.23-.7c-.15-.17-.37-.26-.66-.26h-1.13v1.94h1.15c.29,0,.51-.09.66-.27Z"/>
        <path class="cls-8" d="M388.08,268.8l1.38-6.12h2.36l1.38,6.12h-1.24l-.24-1.11h-2.14l-.24,1.11h-1.24ZM390.42,263.7l-.62,2.91h1.67l-.62-2.91h-.43Z"/>
        <path class="cls-8" d="M397.81,268.7c-.64.14-1.21.21-1.72.21s-.92-.06-1.22-.19c-.31-.13-.55-.33-.72-.6-.17-.28-.29-.6-.36-.97-.07-.37-.1-.84-.1-1.4,0-1.18.17-2.01.5-2.47s.95-.7,1.84-.7c.52,0,1.11.08,1.79.24l-.04.99c-.59-.09-1.09-.13-1.48-.13s-.67.05-.84.16c-.17.11-.29.3-.37.6s-.12.79-.12,1.5.08,1.2.25,1.47.5.41.99.41,1.02-.04,1.58-.13l.03,1.02Z"/>
        <path class="cls-8" d="M400.06,268.8h-1.24v-6.12h1.24v2.69l.83-.09,1.01-2.6h1.41l-1.33,3.07,1.37,3.05h-1.43l-1.03-2.44-.83.09v2.35Z"/>
        <path class="cls-8" d="M406.04,263.65c-.65,0-.98.22-.98.65,0,.19.08.34.24.44.16.1.54.25,1.14.44.6.19,1.02.41,1.26.65s.36.62.36,1.12c0,.64-.2,1.13-.59,1.46-.39.33-.9.5-1.53.5-.47,0-1.04-.07-1.72-.22l-.32-.06.13-.96c.8.11,1.42.16,1.84.16.64,0,.95-.26.95-.79,0-.19-.07-.34-.22-.45-.15-.11-.44-.23-.88-.35-.7-.2-1.19-.43-1.47-.71-.29-.27-.43-.65-.43-1.14,0-.61.19-1.07.56-1.37.37-.3.88-.45,1.53-.45.44,0,1.01.06,1.69.18l.32.06-.1.98c-.85-.1-1.44-.14-1.79-.14Z"/>
        <path class="cls-8" d="M409.05,268.8v-6.12h1.24v6.12h-1.24Z"/>
        <path class="cls-8" d="M413.68,268.8h-2.06v-6.12h2.06c.53,0,.96.06,1.31.17.34.11.61.29.8.55.19.25.32.55.39.9.07.35.11.79.11,1.35s-.03,1.01-.1,1.37c-.07.36-.19.69-.37.97s-.45.49-.8.62c-.35.13-.79.19-1.33.19ZM414.99,266.37c.01-.19.02-.46.02-.8s-.01-.61-.04-.81c-.02-.2-.08-.39-.17-.56s-.22-.28-.4-.35c-.18-.06-.42-.09-.72-.09h-.82v3.96h.82c.45,0,.78-.11.98-.34.17-.19.28-.52.32-1.01Z"/>
        <path class="cls-8" d="M417.37,268.8v-6.12h3.96v1.08h-2.72v1.43h2.18v1.06h-2.18v1.47h2.72v1.08h-3.96Z"/>
        <path class="cls-8" d="M423.78,263.78v-1.1h4.5v1.1h-1.62v5.02h-1.24v-5.02h-1.64Z"/>
        <path class="cls-8" d="M428.22,268.8l1.38-6.12h2.36l1.38,6.12h-1.24l-.24-1.11h-2.14l-.24,1.11h-1.24ZM430.56,263.7l-.62,2.91h1.67l-.62-2.91h-.43Z"/>
        <path class="cls-8" d="M437.22,262.68h1.31l-1.42,6.12h-2.29l-1.42-6.12h1.31l1.06,5.04h.41l1.06-5.04Z"/>
        <path class="cls-8" d="M439.33,268.8v-6.12h3.96v1.08h-2.72v1.43h2.18v1.06h-2.18v1.47h2.72v1.08h-3.96Z"/>
        <path class="cls-8" d="M445.56,266.75v2.05h-1.24v-6.12h2.38c1.44,0,2.16.67,2.16,2.02,0,.8-.3,1.39-.9,1.76l.87,2.34h-1.36l-.71-2.05h-1.2ZM447.37,265.41c.14-.18.22-.42.22-.71s-.08-.53-.23-.7c-.15-.17-.37-.26-.66-.26h-1.13v1.94h1.15c.29,0,.51-.09.66-.27Z"/>
        <path class="cls-8" d="M449.9,268.8v-6.12h2.1l1.48,5.04h.09v-5.04h1.24v6.12h-2.04l-1.53-5.04h-.09v5.04h-1.24Z"/>
        <path class="cls-8" d="M383.27,276.8l1.38-6.12h2.36l1.38,6.12h-1.24l-.24-1.11h-2.14l-.24,1.11h-1.24ZM385.61,271.7l-.62,2.91h1.67l-.62-2.91h-.43Z"/>
        <path class="cls-8" d="M388.32,271.78v-1.1h4.5v1.1h-1.62v5.02h-1.24v-5.02h-1.64Z"/>
        <path class="cls-8" d="M397.83,275.02h-1.01v1.78h-1.24v-6.12h2.25c1.45,0,2.18.71,2.18,2.12,0,.71-.18,1.26-.55,1.64-.37.38-.91.57-1.62.57ZM396.82,273.95h1c.62,0,.93-.38.93-1.15,0-.38-.08-.65-.22-.81-.15-.17-.38-.25-.7-.25h-1v2.21Z"/>
        <path class="cls-8" d="M400.2,276.8l1.38-6.12h2.36l1.38,6.12h-1.24l-.24-1.11h-2.14l-.24,1.11h-1.24ZM402.54,271.7l-.62,2.91h1.67l-.62-2.91h-.43Z"/>
        <path class="cls-8" d="M408.19,276.8h-2.06v-6.12h2.06c.53,0,.96.06,1.31.17.34.11.61.29.8.55.19.25.32.55.39.9.07.35.11.79.11,1.35s-.03,1.01-.1,1.37c-.07.36-.19.69-.37.97s-.45.49-.8.62c-.35.13-.79.19-1.33.19ZM409.49,274.37c.01-.19.02-.46.02-.8s-.01-.61-.04-.81c-.02-.2-.08-.39-.17-.56s-.22-.28-.4-.35c-.18-.06-.42-.09-.72-.09h-.82v3.96h.82c.45,0,.78-.11.98-.34.17-.19.28-.52.32-1.01Z"/>
        <path class="cls-8" d="M413.93,276.8h-2.06v-6.12h2.06c.53,0,.96.06,1.31.17.34.11.61.29.8.55.19.25.32.55.39.9.07.35.11.79.11,1.35s-.03,1.01-.1,1.37c-.07.36-.19.69-.37.97s-.45.49-.8.62c-.35.13-.79.19-1.33.19ZM415.23,274.37c.01-.19.02-.46.02-.8s-.01-.61-.04-.81c-.02-.2-.08-.39-.17-.56s-.22-.28-.4-.35c-.18-.06-.42-.09-.72-.09h-.82v3.96h.82c.45,0,.78-.11.98-.34.17-.19.28-.52.32-1.01Z"/>
        <path class="cls-8" d="M421.84,276.15c-.38.51-1.04.76-1.97.76s-1.58-.25-1.97-.76c-.38-.51-.57-1.3-.57-2.38s.19-1.88.57-2.41c.38-.53,1.04-.79,1.97-.79s1.59.26,1.97.79.57,1.33.57,2.41-.19,1.87-.57,2.38ZM418.88,275.35c.18.31.51.47.99.47s.82-.16,1-.47c.18-.32.27-.84.27-1.58s-.09-1.28-.27-1.62-.51-.5-.99-.5-.81.17-.99.5c-.18.34-.27.87-.27,1.62s.09,1.27.27,1.58Z"/>
        <path class="cls-8" d="M427.36,276.7c-.64.14-1.21.21-1.72.21s-.92-.06-1.22-.19c-.31-.13-.55-.33-.72-.6-.17-.28-.29-.6-.36-.97-.07-.37-.1-.84-.1-1.4,0-1.18.17-2.01.5-2.47s.95-.7,1.84-.7c.52,0,1.11.08,1.79.24l-.04.99c-.59-.09-1.09-.13-1.48-.13s-.67.05-.84.16c-.17.11-.29.3-.37.6s-.12.79-.12,1.5.08,1.2.25,1.47.5.41.99.41,1.02-.04,1.58-.13l.03,1.02Z"/>
        <path class="cls-8" d="M429.61,276.8h-1.24v-6.12h1.24v2.69l.83-.09,1.01-2.6h1.41l-1.33,3.07,1.37,3.05h-1.43l-1.03-2.44-.83.09v2.35Z"/>
        <path class="cls-8" d="M439.56,276.7c-.64.14-1.21.21-1.72.21s-.92-.06-1.22-.19c-.31-.13-.55-.33-.72-.6-.17-.28-.29-.6-.36-.97-.07-.37-.1-.84-.1-1.4,0-1.18.17-2.01.5-2.47s.95-.7,1.84-.7c.52,0,1.11.08,1.79.24l-.04.99c-.59-.09-1.09-.13-1.48-.13s-.67.05-.84.16c-.17.11-.29.3-.37.6s-.12.79-.12,1.5.08,1.2.25,1.47.5.41.99.41,1.02-.04,1.58-.13l.03,1.02Z"/>
        <path class="cls-8" d="M444.05,276.8h-3.48v-6.12h1.24v5.02h2.24v1.1Z"/>
        <path class="cls-8" d="M445.96,274.75c0,.71.36,1.07,1.09,1.07s1.09-.36,1.09-1.07v-4.08h1.24v4.05c0,.75-.19,1.3-.58,1.65-.39.35-.97.53-1.75.53s-1.36-.18-1.75-.53c-.39-.35-.58-.9-.58-1.65v-4.05h1.24v4.08Z"/>
        <path class="cls-8" d="M450.66,270.68h2.4c.64,0,1.11.13,1.43.38s.48.67.48,1.24c0,.34-.05.61-.15.81-.1.2-.28.38-.52.54.27.11.47.28.6.5s.19.52.19.9c0,.59-.17,1.04-.52,1.32-.35.29-.84.43-1.47.43h-2.44v-6.12ZM453,271.74h-1.1v1.46h1.11c.47,0,.7-.24.7-.73s-.24-.73-.71-.73ZM453.03,274.24h-1.13v1.49h1.13c.27,0,.47-.05.6-.16.13-.11.19-.31.19-.59,0-.49-.26-.74-.79-.74Z"/>
        <path class="cls-8" d="M413.5,282.75v2.05h-1.24v-6.12h2.38c1.44,0,2.16.67,2.16,2.02,0,.8-.3,1.39-.9,1.76l.87,2.34h-1.36l-.71-2.05h-1.2ZM415.3,281.41c.14-.18.22-.42.22-.71s-.08-.53-.23-.7c-.15-.17-.37-.26-.66-.26h-1.13v1.94h1.15c.29,0,.51-.09.66-.27Z"/>
        <path class="cls-8" d="M422.07,284.15c-.38.51-1.04.76-1.97.76s-1.58-.25-1.97-.76c-.38-.51-.57-1.3-.57-2.38s.19-1.88.57-2.41c.38-.53,1.04-.79,1.97-.79s1.59.26,1.97.79.57,1.33.57,2.41-.19,1.87-.57,2.38ZM419.11,283.35c.18.31.51.47.99.47s.82-.16,1-.47c.18-.32.27-.84.27-1.58s-.09-1.28-.27-1.62-.51-.5-.99-.5-.81.17-.99.5c-.18.34-.27.87-.27,1.62s.09,1.27.27,1.58Z"/>
        <path class="cls-8" d="M427.94,284.15c-.38.51-1.04.76-1.97.76s-1.58-.25-1.97-.76c-.38-.51-.57-1.3-.57-2.38s.19-1.88.57-2.41c.38-.53,1.04-.79,1.97-.79s1.59.26,1.97.79.57,1.33.57,2.41-.19,1.87-.57,2.38ZM424.98,283.35c.18.31.51.47.99.47s.82-.16,1-.47c.18-.32.27-.84.27-1.58s-.09-1.28-.27-1.62-.51-.5-.99-.5-.81.17-.99.5c-.18.34-.27.87-.27,1.62s.09,1.27.27,1.58Z"/>
        <path class="cls-8" d="M429.57,284.8v-6.12h3.91v1.08h-2.66v1.8h2.18v1.08h-2.18v2.16h-1.24Z"/>
        <path class="cls-8" d="M433.8,279.78v-1.1h4.5v1.1h-1.62v5.02h-1.24v-5.02h-1.64Z"/>
        <path class="cls-8" d="M443.26,284.15c-.38.51-1.04.76-1.97.76s-1.58-.25-1.97-.76c-.38-.51-.57-1.3-.57-2.38s.19-1.88.57-2.41c.38-.53,1.04-.79,1.97-.79s1.59.26,1.97.79.57,1.33.57,2.41-.19,1.87-.57,2.38ZM440.3,283.35c.18.31.51.47.99.47s.82-.16,1-.47c.18-.32.27-.84.27-1.58s-.09-1.28-.27-1.62-.51-.5-.99-.5-.81.17-.99.5c-.18.34-.27.87-.27,1.62s.09,1.27.27,1.58Z"/>
        <path class="cls-8" d="M447.15,283.02h-1.01v1.78h-1.24v-6.12h2.25c1.45,0,2.18.71,2.18,2.12,0,.71-.18,1.26-.55,1.64-.37.38-.91.57-1.62.57ZM446.14,281.95h1c.62,0,.93-.38.93-1.15,0-.38-.08-.65-.22-.81-.15-.17-.38-.25-.7-.25h-1v2.21Z"/>
        <path class="cls-8" d="M450.25,279.71v-.71h1.8v.71h-.37v2.1h-.79v-2.1h-.64ZM452.28,281.82v-2.82h.93l.37,1.42.41-1.42h.92v2.82h-.74v-1.57l-.31,1.38h-.5l-.34-1.38v1.57h-.74Z"/>
      </g>
    </g>
    <g>
      <path class="cls-8" d="M475.37,343.55v-1.1h4.5v1.1h-1.62v5.02h-1.24v-5.02h-1.64Z"/>
      <path class="cls-8" d="M481.84,346.53c0,.71.36,1.07,1.09,1.07s1.09-.36,1.09-1.07v-4.08h1.24v4.05c0,.75-.19,1.3-.58,1.65-.39.35-.97.53-1.75.53s-1.36-.18-1.75-.53c-.39-.35-.58-.9-.58-1.65v-4.05h1.24v4.08Z"/>
      <path class="cls-8" d="M487.78,346.52v2.05h-1.24v-6.12h2.38c1.44,0,2.16.67,2.16,2.02,0,.8-.3,1.39-.9,1.76l.87,2.34h-1.36l-.71-2.05h-1.2ZM489.59,345.19c.14-.18.22-.42.22-.71s-.08-.53-.23-.7c-.15-.17-.37-.26-.66-.26h-1.13v1.94h1.15c.29,0,.51-.09.66-.27Z"/>
      <path class="cls-8" d="M492.12,348.57v-6.12h2.1l1.48,5.04h.09v-5.04h1.24v6.12h-2.04l-1.53-5.04h-.09v5.04h-1.24Z"/>
      <path class="cls-8" d="M500.22,342.85c.55-.22,1.17-.32,1.85-.32s1.18.13,1.49.39c.31.26.47.68.47,1.25s-.23,1.02-.69,1.32c.29.16.49.32.62.49s.18.43.18.8c0,.64-.16,1.12-.48,1.43-.32.31-.83.47-1.54.47-.52,0-1.07-.08-1.65-.23l-.29-.07.06-.94c.67.11,1.24.17,1.69.17.62,0,.93-.26.93-.79,0-.22-.08-.4-.24-.53-.16-.13-.37-.2-.62-.2h-1.2v-1.03h1.2c.2,0,.37-.08.53-.25.15-.17.23-.35.23-.56,0-.43-.3-.64-.89-.64-.41,0-.86.04-1.32.13l-.23.04-.08-.92Z"/>
    </g>
    <g>
      <path class="cls-8" d="M351.89,380.75v-2.54h-2.28v2.54h-1.24v-6.12h1.24v2.5h2.28v-2.5h1.24v6.12h-1.24Z"/>
      <path class="cls-8" d="M354.47,380.75v-6.12h3.96v1.08h-2.72v1.43h2.18v1.06h-2.18v1.47h2.72v1.08h-3.96Z"/>
      <path class="cls-8" d="M359.45,380.75v-6.12h1.24v6.12h-1.24Z"/>
      <path class="cls-8" d="M362.03,380.75v-6.12h2.1l1.48,5.04h.09v-5.04h1.24v6.12h-2.04l-1.53-5.04h-.09v5.04h-1.24Z"/>
      <path class="cls-8" d="M368.26,380.75v-6.12h3.96v1.08h-2.72v1.43h2.18v1.06h-2.18v1.47h2.72v1.08h-3.96Z"/>
      <path class="cls-8" d="M374.49,380.75h-1.24v-6.12h1.24v2.69l.83-.09,1.01-2.6h1.41l-1.33,3.07,1.37,3.05h-1.43l-1.03-2.44-.83.09v2.35Z"/>
      <path class="cls-8" d="M378.59,380.75v-6.12h3.96v1.08h-2.72v1.43h2.18v1.06h-2.18v1.47h2.72v1.08h-3.96Z"/>
      <path class="cls-8" d="M383.57,380.75v-6.12h2.1l1.48,5.04h.09v-5.04h1.24v6.12h-2.04l-1.53-5.04h-.09v5.04h-1.24Z"/>
      <path class="cls-8" d="M392.06,379.4c-.73,0-1.33-.25-1.8-.73-.47-.49-.71-1.1-.71-1.83s.23-1.34.7-1.82c.47-.48,1.06-.72,1.79-.72s1.32.25,1.78.74.69,1.11.69,1.83-.23,1.33-.68,1.81c-.45.48-1.04.72-1.77.72ZM390.67,375.43c-.37.4-.55.87-.55,1.42s.19,1.03.56,1.42c.37.4.83.59,1.37.59s1-.2,1.36-.59c.37-.39.55-.87.55-1.42s-.18-1.03-.55-1.43c-.37-.4-.83-.59-1.37-.59s-1,.2-1.37.59ZM391.82,377.43v.84h-.86v-2.83h1.22c.31,0,.56.08.75.23.19.15.28.37.28.65s-.02.48-.07.61c-.05.13-.14.25-.27.36l.37.99h-.9l-.25-.84h-.26ZM391.81,376.08v.71h.25c.2,0,.31-.12.31-.36s-.1-.36-.31-.36h-.24Z"/>
      <path class="cls-8" d="M347.97,386.56v-1.08h1.78v3.18c-.86.14-1.55.21-2.09.21-.95,0-1.61-.25-1.97-.77-.36-.51-.54-1.32-.54-2.43s.19-1.91.56-2.4c.37-.49,1-.74,1.9-.74.56,0,1.16.06,1.81.19l.32.06-.04.96c-.72-.08-1.31-.12-1.77-.12s-.78.05-.97.16c-.19.11-.32.31-.41.6s-.13.79-.13,1.49.09,1.2.26,1.48c.17.28.53.42,1.08.42l.75-.04v-1.19h-.56Z"/>
      <path class="cls-8" d="M352.17,386.7v2.05h-1.24v-6.12h2.38c1.44,0,2.16.67,2.16,2.02,0,.8-.3,1.39-.9,1.76l.87,2.34h-1.36l-.71-2.05h-1.2ZM353.98,385.37c.14-.18.22-.42.22-.71s-.08-.53-.23-.7c-.15-.17-.37-.26-.66-.26h-1.13v1.94h1.15c.29,0,.51-.09.66-.27Z"/>
      <path class="cls-8" d="M355.92,388.75l1.38-6.12h2.36l1.38,6.12h-1.24l-.24-1.11h-2.14l-.24,1.11h-1.24ZM358.26,383.66l-.62,2.91h1.67l-.62-2.91h-.43Z"/>
      <path class="cls-8" d="M361.85,388.75v-6.12h2.1l1.48,5.04h.09v-5.04h1.24v6.12h-2.04l-1.53-5.04h-.09v5.04h-1.24Z"/>
      <path class="cls-8" d="M370.15,388.75h-2.06v-6.12h2.06c.53,0,.96.06,1.31.17.34.11.61.29.8.55.19.25.32.55.39.9.07.35.11.79.11,1.35s-.03,1.01-.1,1.37c-.07.36-.19.69-.37.97s-.45.49-.8.62c-.35.13-.79.19-1.33.19ZM371.45,386.32c.01-.19.02-.46.02-.8s-.01-.61-.04-.81c-.02-.2-.08-.39-.17-.56s-.22-.28-.4-.35c-.18-.06-.42-.09-.72-.09h-.82v3.96h.82c.45,0,.78-.11.98-.34.17-.19.28-.52.32-1.01Z"/>
      <path class="cls-8" d="M375.71,383.61c-.65,0-.98.22-.98.65,0,.19.08.34.24.44.16.1.54.25,1.14.44.6.19,1.02.41,1.26.65s.36.62.36,1.12c0,.64-.2,1.13-.59,1.46-.39.33-.9.5-1.53.5-.47,0-1.04-.07-1.72-.22l-.32-.06.13-.96c.8.11,1.42.16,1.84.16.64,0,.95-.26.95-.79,0-.19-.07-.34-.22-.45-.15-.11-.44-.23-.88-.35-.7-.2-1.19-.43-1.47-.71-.29-.27-.43-.65-.43-1.14,0-.61.19-1.07.56-1.37.37-.3.88-.45,1.53-.45.44,0,1.01.06,1.69.18l.32.06-.1.98c-.85-.1-1.44-.14-1.79-.14Z"/>
      <path class="cls-8" d="M378.18,383.73v-1.1h4.5v1.1h-1.62v5.02h-1.24v-5.02h-1.64Z"/>
      <path class="cls-8" d="M382.61,388.75l1.38-6.12h2.36l1.38,6.12h-1.24l-.24-1.11h-2.14l-.24,1.11h-1.24ZM384.95,383.66l-.62,2.91h1.67l-.62-2.91h-.43Z"/>
      <path class="cls-8" d="M388.54,388.75v-6.12h2.1l1.48,5.04h.09v-5.04h1.24v6.12h-2.04l-1.53-5.04h-.09v5.04h-1.24Z"/>
      <path class="cls-8" d="M396.84,388.75h-2.06v-6.12h2.06c.53,0,.96.06,1.31.17.34.11.61.29.8.55.19.25.32.55.39.9.07.35.11.79.11,1.35s-.03,1.01-.1,1.37c-.07.36-.19.69-.37.97s-.45.49-.8.62c-.35.13-.79.19-1.33.19ZM398.15,386.32c.01-.19.02-.46.02-.8s-.01-.61-.04-.81c-.02-.2-.08-.39-.17-.56s-.22-.28-.4-.35c-.18-.06-.42-.09-.72-.09h-.82v3.96h.82c.45,0,.78-.11.98-.34.17-.19.28-.52.32-1.01Z"/>
    </g>
    <g>
      <path class="cls-8" d="M456.51,361.45h1.3l.76,5.06h.13l1.1-5.06h1.44l1.1,5.06h.13l.76-5.06h1.31l-1.17,6.12h-1.88l-.96-4.65-.96,4.65h-1.88l-1.17-6.12Z"/>
      <path class="cls-8" d="M465.37,367.57v-6.12h3.96v1.08h-2.72v1.43h2.18v1.06h-2.18v1.47h2.72v1.08h-3.96Z"/>
      <path class="cls-8" d="M472.24,362.42c-.65,0-.98.22-.98.65,0,.19.08.34.24.44.16.1.54.25,1.14.44.6.19,1.02.41,1.26.65s.36.62.36,1.12c0,.64-.2,1.13-.59,1.46-.39.33-.9.5-1.53.5-.47,0-1.04-.07-1.72-.22l-.32-.06.13-.96c.8.11,1.42.16,1.84.16.64,0,.95-.26.95-.79,0-.19-.07-.34-.22-.45-.15-.11-.44-.23-.88-.35-.7-.2-1.19-.43-1.47-.71-.29-.27-.43-.65-.43-1.14,0-.61.19-1.07.56-1.37.37-.3.88-.45,1.53-.45.44,0,1.01.06,1.69.18l.32.06-.1.98c-.85-.1-1.44-.14-1.79-.14Z"/>
      <path class="cls-8" d="M474.71,362.55v-1.1h4.5v1.1h-1.62v5.02h-1.24v-5.02h-1.64Z"/>
      <path class="cls-8" d="M485.49,367.57v-2.54h-2.28v2.54h-1.24v-6.12h1.24v2.5h2.28v-2.5h1.24v6.12h-1.24Z"/>
      <path class="cls-8" d="M487.55,367.57l1.38-6.12h2.36l1.38,6.12h-1.24l-.24-1.11h-2.14l-.24,1.11h-1.24ZM489.89,362.47l-.62,2.91h1.67l-.62-2.91h-.43Z"/>
      <path class="cls-8" d="M494.72,365.52v2.05h-1.24v-6.12h2.38c1.44,0,2.16.67,2.16,2.02,0,.8-.3,1.39-.9,1.76l.87,2.34h-1.36l-.71-2.05h-1.2ZM496.53,364.18c.14-.18.22-.42.22-.71s-.08-.53-.23-.7c-.15-.17-.37-.26-.66-.26h-1.13v1.94h1.15c.29,0,.51-.09.66-.27Z"/>
      <path class="cls-8" d="M499.06,367.57v-6.12h2.12l1.08,4.46,1.08-4.46h2.11v6.12h-1.24v-4.73h-.14l-1.2,4.46h-1.24l-1.2-4.46h-.13v4.73h-1.24Z"/>
      <path class="cls-8" d="M511.01,366.92c-.38.51-1.04.76-1.97.76s-1.58-.25-1.97-.76c-.38-.51-.57-1.3-.57-2.38s.19-1.88.57-2.41c.38-.53,1.04-.79,1.97-.79s1.59.26,1.97.79.57,1.33.57,2.41-.19,1.87-.57,2.38ZM508.05,366.12c.18.31.51.47.99.47s.82-.16,1-.47c.18-.32.27-.84.27-1.58s-.09-1.28-.27-1.62-.51-.5-.99-.5-.81.17-.99.5c-.18.34-.27.87-.27,1.62s.09,1.27.27,1.58Z"/>
      <path class="cls-8" d="M512.65,367.57v-6.12h2.1l1.48,5.04h.09v-5.04h1.24v6.12h-2.04l-1.53-5.04h-.09v5.04h-1.24Z"/>
      <path class="cls-8" d="M466.33,373.37v-1.08h1.78v3.18c-.86.14-1.55.21-2.09.21-.95,0-1.61-.25-1.97-.77-.36-.51-.54-1.32-.54-2.43s.19-1.91.56-2.4c.37-.49,1-.74,1.9-.74.56,0,1.16.06,1.81.19l.32.06-.04.96c-.72-.08-1.31-.12-1.77-.12s-.78.05-.97.16c-.19.11-.32.31-.41.6s-.13.79-.13,1.49.09,1.2.26,1.48c.17.28.53.42,1.08.42l.75-.04v-1.19h-.56Z"/>
      <path class="cls-8" d="M470.53,373.52v2.05h-1.24v-6.12h2.38c1.44,0,2.16.67,2.16,2.02,0,.8-.3,1.39-.9,1.76l.87,2.34h-1.36l-.71-2.05h-1.2ZM472.34,372.18c.14-.18.22-.42.22-.71s-.08-.53-.23-.7c-.15-.17-.37-.26-.66-.26h-1.13v1.94h1.15c.29,0,.51-.09.66-.27Z"/>
      <path class="cls-8" d="M474.28,375.57l1.38-6.12h2.36l1.38,6.12h-1.24l-.24-1.11h-2.14l-.24,1.11h-1.24ZM476.62,370.47l-.62,2.91h1.67l-.62-2.91h-.43Z"/>
      <path class="cls-8" d="M480.21,375.57v-6.12h2.1l1.48,5.04h.09v-5.04h1.24v6.12h-2.04l-1.53-5.04h-.09v5.04h-1.24Z"/>
      <path class="cls-8" d="M488.51,375.57h-2.06v-6.12h2.06c.53,0,.96.06,1.31.17.34.11.61.29.8.55.19.25.32.55.39.9.07.35.11.79.11,1.35s-.03,1.01-.1,1.37c-.07.36-.19.69-.37.97s-.45.49-.8.62c-.35.13-.79.19-1.33.19ZM489.82,373.14c.01-.19.02-.46.02-.8s-.01-.61-.04-.81c-.02-.2-.08-.39-.17-.56s-.22-.28-.4-.35c-.18-.06-.42-.09-.72-.09h-.82v3.96h.82c.45,0,.78-.11.98-.34.17-.19.28-.52.32-1.01Z"/>
      <path class="cls-8" d="M494.07,370.42c-.65,0-.98.22-.98.65,0,.19.08.34.24.44.16.1.54.25,1.14.44.6.19,1.02.41,1.26.65s.36.62.36,1.12c0,.64-.2,1.13-.59,1.46-.39.33-.9.5-1.53.5-.47,0-1.04-.07-1.72-.22l-.32-.06.13-.96c.8.11,1.42.16,1.84.16.64,0,.95-.26.95-.79,0-.19-.07-.34-.22-.45-.15-.11-.44-.23-.88-.35-.7-.2-1.19-.43-1.47-.71-.29-.27-.43-.65-.43-1.14,0-.61.19-1.07.56-1.37.37-.3.88-.45,1.53-.45.44,0,1.01.06,1.69.18l.32.06-.1.98c-.85-.1-1.44-.14-1.79-.14Z"/>
      <path class="cls-8" d="M496.54,370.55v-1.1h4.5v1.1h-1.62v5.02h-1.24v-5.02h-1.64Z"/>
      <path class="cls-8" d="M500.97,375.57l1.38-6.12h2.36l1.38,6.12h-1.24l-.24-1.11h-2.14l-.24,1.11h-1.24ZM503.31,370.47l-.62,2.91h1.67l-.62-2.91h-.43Z"/>
      <path class="cls-8" d="M506.91,375.57v-6.12h2.1l1.48,5.04h.09v-5.04h1.24v6.12h-2.04l-1.53-5.04h-.09v5.04h-1.24Z"/>
      <path class="cls-8" d="M515.2,375.57h-2.06v-6.12h2.06c.53,0,.96.06,1.31.17.34.11.61.29.8.55.19.25.32.55.39.9.07.35.11.79.11,1.35s-.03,1.01-.1,1.37c-.07.36-.19.69-.37.97s-.45.49-.8.62c-.35.13-.79.19-1.33.19ZM516.51,373.14c.01-.19.02-.46.02-.8s-.01-.61-.04-.81c-.02-.2-.08-.39-.17-.56s-.22-.28-.4-.35c-.18-.06-.42-.09-.72-.09h-.82v3.96h.82c.45,0,.78-.11.98-.34.17-.19.28-.52.32-1.01Z"/>
    </g>
    <g>
      <path class="cls-8" d="M410.37,215.77v-2.54h-2.28v2.54h-1.24v-6.12h1.24v2.5h2.28v-2.5h1.24v6.12h-1.24Z"/>
      <path class="cls-8" d="M412.94,215.77v-6.12h3.96v1.08h-2.72v1.43h2.18v1.06h-2.18v1.47h2.72v1.08h-3.96Z"/>
      <path class="cls-8" d="M417.93,215.77v-6.12h1.24v6.12h-1.24Z"/>
      <path class="cls-8" d="M420.5,215.77v-6.12h2.1l1.48,5.04h.09v-5.04h1.24v6.12h-2.04l-1.53-5.04h-.09v5.04h-1.24Z"/>
      <path class="cls-8" d="M426.74,215.77v-6.12h3.96v1.08h-2.72v1.43h2.18v1.06h-2.18v1.47h2.72v1.08h-3.96Z"/>
      <path class="cls-8" d="M432.97,215.77h-1.24v-6.12h1.24v2.69l.83-.09,1.01-2.6h1.41l-1.33,3.07,1.37,3.05h-1.43l-1.03-2.44-.83.09v2.35Z"/>
      <path class="cls-8" d="M437.06,215.77v-6.12h3.96v1.08h-2.72v1.43h2.18v1.06h-2.18v1.47h2.72v1.08h-3.96Z"/>
      <path class="cls-8" d="M442.05,215.77v-6.12h2.1l1.48,5.04h.09v-5.04h1.24v6.12h-2.04l-1.53-5.04h-.09v5.04h-1.24Z"/>
      <path class="cls-8" d="M450.54,214.42c-.73,0-1.33-.25-1.8-.73-.47-.49-.71-1.1-.71-1.83s.23-1.34.7-1.82c.47-.48,1.06-.72,1.79-.72s1.32.25,1.78.74.69,1.11.69,1.83-.23,1.33-.68,1.81c-.45.48-1.04.72-1.77.72ZM449.15,210.44c-.37.4-.55.87-.55,1.42s.19,1.03.56,1.42c.37.4.83.59,1.37.59s1-.2,1.36-.59c.37-.39.55-.87.55-1.42s-.18-1.03-.55-1.43c-.37-.4-.83-.59-1.37-.59s-1,.2-1.37.59ZM450.29,212.45v.84h-.86v-2.83h1.22c.31,0,.56.08.75.23.19.15.28.37.28.65s-.02.48-.07.61c-.05.13-.14.25-.27.36l.37.99h-.9l-.25-.84h-.26ZM450.29,211.1v.71h.25c.2,0,.31-.12.31-.36s-.1-.36-.31-.36h-.24Z"/>
      <path class="cls-8" d="M457.93,210.62c-.65,0-.98.22-.98.65,0,.19.08.34.24.44.16.1.54.25,1.14.44.6.19,1.02.41,1.26.65s.36.62.36,1.12c0,.64-.2,1.13-.59,1.46-.39.33-.9.5-1.53.5-.47,0-1.04-.07-1.72-.22l-.32-.06.13-.96c.8.11,1.42.16,1.84.16.64,0,.95-.26.95-.79,0-.19-.07-.34-.22-.45-.15-.11-.44-.23-.88-.35-.7-.2-1.19-.43-1.47-.71-.29-.27-.43-.65-.43-1.14,0-.61.19-1.07.56-1.37.37-.3.88-.45,1.53-.45.44,0,1.01.06,1.69.18l.32.06-.1.98c-.85-.1-1.44-.14-1.79-.14Z"/>
      <path class="cls-8" d="M460.95,215.77v-6.12h1.24v6.12h-1.24Z"/>
      <path class="cls-8" d="M467.01,215.77h-3.48v-6.12h1.24v5.02h2.24v1.1Z"/>
      <path class="cls-8" d="M470.59,209.65h1.31l-1.42,6.12h-2.29l-1.42-6.12h1.31l1.06,5.04h.41l1.06-5.04Z"/>
      <path class="cls-8" d="M472.7,215.77v-6.12h3.96v1.08h-2.72v1.43h2.18v1.06h-2.18v1.47h2.72v1.08h-3.96Z"/>
      <path class="cls-8" d="M478.93,213.72v2.05h-1.24v-6.12h2.38c1.44,0,2.16.67,2.16,2.02,0,.8-.3,1.39-.9,1.76l.87,2.34h-1.36l-.71-2.05h-1.2ZM480.74,212.39c.14-.18.22-.42.22-.71s-.08-.53-.23-.7c-.15-.17-.37-.26-.66-.26h-1.13v1.94h1.15c.29,0,.51-.09.66-.27Z"/>
      <path class="cls-8" d="M406.85,223.77v-6.12h2.12l1.08,4.46,1.08-4.46h2.11v6.12h-1.24v-4.73h-.14l-1.2,4.46h-1.24l-1.2-4.46h-.13v4.73h-1.24Z"/>
      <path class="cls-8" d="M414.06,223.77l1.38-6.12h2.36l1.38,6.12h-1.24l-.24-1.11h-2.14l-.24,1.11h-1.24ZM416.4,218.68l-.62,2.91h1.67l-.62-2.91h-.43Z"/>
      <path class="cls-8" d="M419.99,223.77v-6.12h1.24v6.12h-1.24Z"/>
      <path class="cls-8" d="M422.57,223.77v-6.12h2.1l1.48,5.04h.09v-5.04h1.24v6.12h-2.04l-1.53-5.04h-.09v5.04h-1.24Z"/>
      <path class="cls-8" d="M433.33,221.57v-1.08h1.78v3.18c-.86.14-1.55.21-2.09.21-.95,0-1.61-.25-1.97-.77-.36-.51-.54-1.32-.54-2.43s.19-1.91.56-2.4c.37-.49,1-.74,1.9-.74.56,0,1.16.06,1.81.19l.32.06-.04.96c-.72-.08-1.31-.12-1.77-.12s-.78.05-.97.16c-.19.11-.32.31-.41.6s-.13.79-.13,1.49.09,1.2.26,1.48c.17.28.53.42,1.08.42l.75-.04v-1.19h-.56Z"/>
      <path class="cls-8" d="M437.52,221.72v2.05h-1.24v-6.12h2.38c1.44,0,2.16.67,2.16,2.02,0,.8-.3,1.39-.9,1.76l.87,2.34h-1.36l-.71-2.05h-1.2ZM439.33,220.39c.14-.18.22-.42.22-.71s-.08-.53-.23-.7c-.15-.17-.37-.26-.66-.26h-1.13v1.94h1.15c.29,0,.51-.09.66-.27Z"/>
      <path class="cls-8" d="M441.28,223.77l1.38-6.12h2.36l1.38,6.12h-1.24l-.24-1.11h-2.14l-.24,1.11h-1.24ZM443.62,218.68l-.62,2.91h1.67l-.62-2.91h-.43Z"/>
      <path class="cls-8" d="M447.21,223.77v-6.12h2.1l1.48,5.04h.09v-5.04h1.24v6.12h-2.04l-1.53-5.04h-.09v5.04h-1.24Z"/>
      <path class="cls-8" d="M455.5,223.77h-2.06v-6.12h2.06c.53,0,.96.06,1.31.17.34.11.61.29.8.55.19.25.32.55.39.9.07.35.11.79.11,1.35s-.03,1.01-.1,1.37c-.07.36-.19.69-.37.97s-.45.49-.8.62c-.35.13-.79.19-1.33.19ZM456.81,221.34c.01-.19.02-.46.02-.8s-.01-.61-.04-.81c-.02-.2-.08-.39-.17-.56s-.22-.28-.4-.35c-.18-.06-.42-.09-.72-.09h-.82v3.96h.82c.45,0,.78-.11.98-.34.17-.19.28-.52.32-1.01Z"/>
      <path class="cls-8" d="M461.07,218.62c-.65,0-.98.22-.98.65,0,.19.08.34.24.44.16.1.54.25,1.14.44.6.19,1.02.41,1.26.65s.36.62.36,1.12c0,.64-.2,1.13-.59,1.46-.39.33-.9.5-1.53.5-.47,0-1.04-.07-1.72-.22l-.32-.06.13-.96c.8.11,1.42.16,1.84.16.64,0,.95-.26.95-.79,0-.19-.07-.34-.22-.45-.15-.11-.44-.23-.88-.35-.7-.2-1.19-.43-1.47-.71-.29-.27-.43-.65-.43-1.14,0-.61.19-1.07.56-1.37.37-.3.88-.45,1.53-.45.44,0,1.01.06,1.69.18l.32.06-.1.98c-.85-.1-1.44-.14-1.79-.14Z"/>
      <path class="cls-8" d="M463.53,218.75v-1.1h4.5v1.1h-1.62v5.02h-1.24v-5.02h-1.64Z"/>
      <path class="cls-8" d="M467.97,223.77l1.38-6.12h2.36l1.38,6.12h-1.24l-.24-1.11h-2.14l-.24,1.11h-1.24ZM470.31,218.68l-.62,2.91h1.67l-.62-2.91h-.43Z"/>
      <path class="cls-8" d="M473.9,223.77v-6.12h2.1l1.48,5.04h.09v-5.04h1.24v6.12h-2.04l-1.53-5.04h-.09v5.04h-1.24Z"/>
      <path class="cls-8" d="M482.2,223.77h-2.06v-6.12h2.06c.53,0,.96.06,1.31.17.34.11.61.29.8.55.19.25.32.55.39.9.07.35.11.79.11,1.35s-.03,1.01-.1,1.37c-.07.36-.19.69-.37.97s-.45.49-.8.62c-.35.13-.79.19-1.33.19ZM483.5,221.34c.01-.19.02-.46.02-.8s-.01-.61-.04-.81c-.02-.2-.08-.39-.17-.56s-.22-.28-.4-.35c-.18-.06-.42-.09-.72-.09h-.82v3.96h.82c.45,0,.78-.11.98-.34.17-.19.28-.52.32-1.01Z"/>
    </g>
    <g>
      <path class="cls-8" d="M161.02,184.49v-1.1h4.5v1.1h-1.62v5.02h-1.24v-5.02h-1.64Z"/>
      <path class="cls-8" d="M165.63,187.67v-1.1h2.66v1.1h-2.66Z"/>
      <path class="cls-8" d="M169.47,189.52v-6.12h2.12l1.08,4.46,1.08-4.46h2.11v6.12h-1.24v-4.73h-.14l-1.2,4.46h-1.24l-1.2-4.46h-.13v4.73h-1.24Z"/>
      <path class="cls-8" d="M181.42,188.86c-.38.51-1.04.76-1.97.76s-1.58-.25-1.97-.76c-.38-.51-.57-1.3-.57-2.38s.19-1.88.57-2.41c.38-.53,1.04-.79,1.97-.79s1.59.26,1.97.79.57,1.33.57,2.41-.19,1.87-.57,2.38ZM178.46,188.07c.18.31.51.47.99.47s.82-.16,1-.47c.18-.32.27-.84.27-1.58s-.09-1.28-.27-1.62-.51-.5-.99-.5-.81.17-.99.5c-.18.34-.27.87-.27,1.62s.09,1.27.27,1.58Z"/>
      <path class="cls-8" d="M183.06,183.4h2.4c.64,0,1.11.13,1.43.38s.48.67.48,1.24c0,.34-.05.61-.15.81-.1.2-.28.38-.52.54.27.11.47.28.6.5s.19.52.19.9c0,.59-.17,1.04-.52,1.32-.35.29-.84.43-1.47.43h-2.44v-6.12ZM185.4,184.46h-1.1v1.46h1.11c.47,0,.7-.24.7-.73s-.24-.73-.71-.73ZM185.43,186.96h-1.13v1.49h1.13c.27,0,.47-.05.6-.16.13-.11.19-.31.19-.59,0-.49-.26-.74-.79-.74Z"/>
      <path class="cls-8" d="M188.54,189.52v-6.12h1.24v6.12h-1.24Z"/>
      <path class="cls-8" d="M194.59,189.52h-3.48v-6.12h1.24v5.02h2.24v1.1Z"/>
      <path class="cls-8" d="M195.36,189.52v-6.12h3.96v1.08h-2.72v1.43h2.18v1.06h-2.18v1.47h2.72v1.08h-3.96Z"/>
      <path class="cls-8" d="M202.03,184.48v-1.08h4.05v1.08l-2.56,3.8v.16h2.56v1.08h-4.05v-1.07l2.56-3.81v-.16h-2.56Z"/>
      <path class="cls-8" d="M211.35,188.86c-.38.51-1.04.76-1.97.76s-1.58-.25-1.97-.76c-.38-.51-.57-1.3-.57-2.38s.19-1.88.57-2.41c.38-.53,1.04-.79,1.97-.79s1.59.26,1.97.79.57,1.33.57,2.41-.19,1.87-.57,2.38ZM208.39,188.07c.18.31.51.47.99.47s.82-.16,1-.47c.18-.32.27-.84.27-1.58s-.09-1.28-.27-1.62-.51-.5-.99-.5-.81.17-.99.5c-.18.34-.27.87-.27,1.62s.09,1.27.27,1.58Z"/>
      <path class="cls-8" d="M212.98,189.52v-6.12h2.1l1.48,5.04h.09v-5.04h1.24v6.12h-2.04l-1.53-5.04h-.09v5.04h-1.24Z"/>
      <path class="cls-8" d="M219.22,189.52v-6.12h3.96v1.08h-2.72v1.43h2.18v1.06h-2.18v1.47h2.72v1.08h-3.96Z"/>
      <path class="cls-8" d="M161.06,197.52l1.38-6.12h2.36l1.38,6.12h-1.24l-.24-1.11h-2.14l-.24,1.11h-1.24ZM163.4,192.42l-.62,2.91h1.67l-.62-2.91h-.43Z"/>
      <path class="cls-8" d="M166.11,192.49v-1.1h4.5v1.1h-1.62v5.02h-1.24v-5.02h-1.64Z"/>
      <path class="cls-8" d="M175.25,192.37c-.65,0-.98.22-.98.65,0,.19.08.34.24.44.16.1.54.25,1.14.44.6.19,1.02.41,1.26.65s.36.62.36,1.12c0,.64-.2,1.13-.59,1.46-.39.33-.9.5-1.53.5-.47,0-1.04-.07-1.72-.22l-.32-.06.13-.96c.8.11,1.42.16,1.84.16.64,0,.95-.26.95-.79,0-.19-.07-.34-.22-.45-.15-.11-.44-.23-.88-.35-.7-.2-1.19-.43-1.47-.71-.29-.27-.43-.65-.43-1.14,0-.61.19-1.07.56-1.37.37-.3.88-.45,1.53-.45.44,0,1.01.06,1.69.18l.32.06-.1.98c-.85-.1-1.44-.14-1.79-.14Z"/>
      <path class="cls-8" d="M180.52,195.73h-1.01v1.78h-1.24v-6.12h2.25c1.45,0,2.18.71,2.18,2.12,0,.71-.18,1.26-.55,1.64-.37.38-.91.57-1.62.57ZM179.51,194.67h1c.62,0,.93-.38.93-1.15,0-.38-.08-.65-.22-.81-.15-.17-.38-.25-.7-.25h-1v2.21Z"/>
      <path class="cls-8" d="M187.09,197.52v-2.54h-2.28v2.54h-1.24v-6.12h1.24v2.5h2.28v-2.5h1.24v6.12h-1.24Z"/>
      <path class="cls-8" d="M189.66,197.52v-6.12h3.96v1.08h-2.72v1.43h2.18v1.06h-2.18v1.47h2.72v1.08h-3.96Z"/>
      <path class="cls-8" d="M195.89,195.46v2.05h-1.24v-6.12h2.38c1.44,0,2.16.67,2.16,2.02,0,.8-.3,1.39-.9,1.76l.87,2.34h-1.36l-.71-2.05h-1.2ZM197.7,194.13c.14-.18.22-.42.22-.71s-.08-.53-.23-.7c-.15-.17-.37-.26-.66-.26h-1.13v1.94h1.15c.29,0,.51-.09.66-.27Z"/>
      <path class="cls-8" d="M200.23,197.52v-6.12h3.96v1.08h-2.72v1.43h2.18v1.06h-2.18v1.47h2.72v1.08h-3.96Z"/>
      <path class="cls-8" d="M164.12,203.32v-1.08h1.78v3.18c-.86.14-1.55.21-2.09.21-.95,0-1.61-.25-1.97-.77-.36-.51-.54-1.32-.54-2.43s.19-1.91.56-2.4c.37-.49,1-.74,1.9-.74.56,0,1.16.06,1.81.19l.32.06-.04.96c-.72-.08-1.31-.12-1.77-.12s-.78.05-.97.16c-.19.11-.32.31-.41.6s-.13.79-.13,1.49.09,1.2.26,1.48c.17.28.53.42,1.08.42l.75-.04v-1.19h-.56Z"/>
      <path class="cls-8" d="M168.31,203.46v2.05h-1.24v-6.12h2.38c1.44,0,2.16.67,2.16,2.02,0,.8-.3,1.39-.9,1.76l.87,2.34h-1.36l-.71-2.05h-1.2ZM170.12,202.13c.14-.18.22-.42.22-.71s-.08-.53-.23-.7c-.15-.17-.37-.26-.66-.26h-1.13v1.94h1.15c.29,0,.51-.09.66-.27Z"/>
      <path class="cls-8" d="M172.07,205.52l1.38-6.12h2.36l1.38,6.12h-1.24l-.24-1.11h-2.14l-.24,1.11h-1.24ZM174.41,200.42l-.62,2.91h1.67l-.62-2.91h-.43Z"/>
      <path class="cls-8" d="M178,205.52v-6.12h2.1l1.48,5.04h.09v-5.04h1.24v6.12h-2.04l-1.53-5.04h-.09v5.04h-1.24Z"/>
      <path class="cls-8" d="M186.3,205.52h-2.06v-6.12h2.06c.53,0,.96.06,1.31.17.34.11.61.29.8.55.19.25.32.55.39.9.07.35.11.79.11,1.35s-.03,1.01-.1,1.37c-.07.36-.19.69-.37.97s-.45.49-.8.62c-.35.13-.79.19-1.33.19ZM187.6,203.09c.01-.19.02-.46.02-.8s-.01-.61-.04-.81c-.02-.2-.08-.39-.17-.56s-.22-.28-.4-.35c-.18-.06-.42-.09-.72-.09h-.82v3.96h.82c.45,0,.78-.11.98-.34.17-.19.28-.52.32-1.01Z"/>
      <path class="cls-8" d="M191.86,200.37c-.65,0-.98.22-.98.65,0,.19.08.34.24.44.16.1.54.25,1.14.44.6.19,1.02.41,1.26.65s.36.62.36,1.12c0,.64-.2,1.13-.59,1.46-.39.33-.9.5-1.53.5-.47,0-1.04-.07-1.72-.22l-.32-.06.13-.96c.8.11,1.42.16,1.84.16.64,0,.95-.26.95-.79,0-.19-.07-.34-.22-.45-.15-.11-.44-.23-.88-.35-.7-.2-1.19-.43-1.47-.71-.29-.27-.43-.65-.43-1.14,0-.61.19-1.07.56-1.37.37-.3.88-.45,1.53-.45.44,0,1.01.06,1.69.18l.32.06-.1.98c-.85-.1-1.44-.14-1.79-.14Z"/>
      <path class="cls-8" d="M194.32,200.49v-1.1h4.5v1.1h-1.62v5.02h-1.24v-5.02h-1.64Z"/>
      <path class="cls-8" d="M198.76,205.52l1.38-6.12h2.36l1.38,6.12h-1.24l-.24-1.11h-2.14l-.24,1.11h-1.24ZM201.1,200.42l-.62,2.91h1.67l-.62-2.91h-.43Z"/>
      <path class="cls-8" d="M204.69,205.52v-6.12h2.1l1.48,5.04h.09v-5.04h1.24v6.12h-2.04l-1.53-5.04h-.09v5.04h-1.24Z"/>
      <path class="cls-8" d="M212.99,205.52h-2.06v-6.12h2.06c.53,0,.96.06,1.31.17.34.11.61.29.8.55.19.25.32.55.39.9.07.35.11.79.11,1.35s-.03,1.01-.1,1.37c-.07.36-.19.69-.37.97s-.45.49-.8.62c-.35.13-.79.19-1.33.19ZM214.29,203.09c.01-.19.02-.46.02-.8s-.01-.61-.04-.81c-.02-.2-.08-.39-.17-.56s-.22-.28-.4-.35c-.18-.06-.42-.09-.72-.09h-.82v3.96h.82c.45,0,.78-.11.98-.34.17-.19.28-.52.32-1.01Z"/>
      <path class="cls-8" d="M218.55,200.37c-.65,0-.98.22-.98.65,0,.19.08.34.24.44.16.1.54.25,1.14.44.6.19,1.02.41,1.26.65s.36.62.36,1.12c0,.64-.2,1.13-.59,1.46-.39.33-.9.5-1.53.5-.47,0-1.04-.07-1.72-.22l-.32-.06.13-.96c.8.11,1.42.16,1.84.16.64,0,.95-.26.95-.79,0-.19-.07-.34-.22-.45-.15-.11-.44-.23-.88-.35-.7-.2-1.19-.43-1.47-.71-.29-.27-.43-.65-.43-1.14,0-.61.19-1.07.56-1.37.37-.3.88-.45,1.53-.45.44,0,1.01.06,1.69.18l.32.06-.1.98c-.85-.1-1.44-.14-1.79-.14Z"/>
    </g>
    <g>
      <path class="cls-8" d="M38.16,393.51c-.53.27-.7.59-.51.96.1.19.23.3.39.31s.49-.02.98-.12c.48-.1.86-.11,1.12-.04.26.08.48.29.66.64.23.45.27.85.13,1.2-.14.35-.43.64-.88.87-.35.18-.77.34-1.24.47l-.25.07-.21-.59c.6-.21,1.05-.39,1.34-.54.52-.26.66-.62.42-1.08-.09-.18-.22-.28-.38-.31-.16-.03-.47.01-.93.12-.46.11-.84.12-1.13.04-.29-.08-.53-.31-.73-.69s-.22-.74-.07-1.07c.15-.33.45-.6.89-.83.32-.16.72-.32,1.19-.47l.24-.07.23.59c-.62.23-1.05.41-1.29.53Z"/>
      <path class="cls-8" d="M41.77,396.37l-1.12-4.81,1.38-.7,3.24,3.73-.7.36-.7-.8-1.64.84.24,1.03-.69.35ZM41.48,391.87l.57,2.43,1.37-.7-1.63-1.9-.31.16Z"/>
      <path class="cls-8" d="M45.87,394.28l-2.18-4.27,1.21-.62,3.16,3,.09-.05-1.87-3.66.69-.35,2.18,4.27-1.19.6-3.2-2.99-.09.04,1.87,3.67-.69.35Z"/>
      <path class="cls-8" d="M51.63,391.35l-1.48.75-2.18-4.27,1.48-.75c.66-.33,1.19-.4,1.6-.19.41.21.8.67,1.16,1.38.18.36.32.68.4.96.08.28.11.55.09.81-.03.52-.39.96-1.08,1.31ZM51.5,388.63c-.26-.52-.52-.86-.76-1.02-.25-.16-.57-.14-.97.06l-.79.4,1.56,3.06.79-.4c.41-.21.61-.5.59-.88-.01-.19-.05-.37-.12-.56-.07-.19-.17-.41-.3-.67Z"/>
      <path class="cls-8" d="M53.5,385.69c-.53.27-.7.59-.51.96.1.19.23.3.4.31.17.02.49-.02.98-.12.49-.1.86-.11,1.12-.04.26.07.48.29.66.64.23.45.27.85.13,1.2-.14.35-.43.64-.87.87-.35.18-.77.34-1.24.47l-.25.07-.21-.59c.6-.21,1.04-.39,1.34-.54.52-.26.66-.62.42-1.08-.09-.18-.22-.28-.38-.31-.16-.03-.47.01-.93.12-.46.11-.83.12-1.13.04-.29-.08-.53-.31-.73-.7-.2-.39-.22-.74-.07-1.07.15-.33.45-.6.89-.83.32-.16.72-.32,1.19-.47l.24-.07.23.59c-.62.23-1.04.41-1.29.53Z"/>
      <path class="cls-8" d="M58.54,387.82l-1.12-4.81,1.38-.7,3.24,3.73-.7.36-.7-.8-1.64.84.24,1.04-.69.35ZM58.25,383.32l.57,2.43,1.37-.7-1.63-1.9-.31.16Z"/>
      <path class="cls-8" d="M62.66,380.34l.72-.37,1.13,4.81-1.36.69-3.23-3.74.72-.37,2.71,3.23.31-.16-1.02-4.09Z"/>
      <path class="cls-8" d="M66.17,383.93l-2.18-4.27,2.7-1.37.31.61-2,1.02.62,1.21,1.63-.83.3.6-1.63.83.64,1.25,2-1.02.31.61-2.7,1.37Z"/>
    </g>
    <g>
      <path class="cls-8" d="M288.29,535.42h-2.69v-4.79h.78v4.1h1.91v.69Z"/>
      <path class="cls-8" d="M288.52,535.42l1.18-4.79h1.55l1.19,4.79h-.78l-.26-1.03h-1.84l-.26,1.03h-.78ZM290.3,531.28l-.59,2.43h1.53l-.59-2.43h-.35Z"/>
      <path class="cls-8" d="M294.48,531.23c-.59,0-.89.21-.89.62,0,.21.07.37.21.46.14.09.45.2.93.34.48.13.82.29,1.01.48.2.18.29.48.29.87,0,.5-.14.88-.43,1.13-.29.25-.68.38-1.17.38-.4,0-.84-.05-1.32-.14l-.25-.05.08-.62c.63.08,1.11.13,1.44.13.58,0,.87-.26.87-.77,0-.2-.07-.35-.2-.44s-.42-.2-.88-.32c-.46-.11-.8-.27-1.02-.47-.22-.2-.34-.52-.34-.95s.14-.76.42-.98.67-.33,1.17-.33c.36,0,.78.04,1.27.13l.25.04-.06.63c-.65-.07-1.12-.11-1.39-.11Z"/>
      <path class="cls-8" d="M301.07,530.62h.81l-1.18,4.79h-1.53l-1.18-4.79h.81l.95,4.11h.35l.95-4.11Z"/>
      <path class="cls-8" d="M302.57,535.42v-4.79h3.02v.68h-2.25v1.36h1.83v.67h-1.83v1.4h2.25v.69h-3.02Z"/>
      <path class="cls-8" d="M308.35,533.59v-.69h1.37v2.44c-.13.03-.38.07-.77.11-.38.04-.66.06-.84.06-.73,0-1.23-.2-1.5-.6s-.41-1.03-.41-1.89.14-1.48.42-1.87c.28-.39.77-.59,1.47-.59.41,0,.87.05,1.39.14l.25.05-.03.62c-.56-.07-1.07-.11-1.52-.11s-.75.13-.92.38c-.17.25-.25.72-.25,1.4s.08,1.15.23,1.41.47.39.95.39c.34,0,.59-.02.76-.06v-1.17h-.59Z"/>
      <path class="cls-8" d="M310.27,535.42l1.18-4.79h1.55l1.19,4.79h-.78l-.26-1.03h-1.84l-.26,1.03h-.78ZM312.06,531.28l-.59,2.43h1.53l-.59-2.43h-.35Z"/>
      <path class="cls-8" d="M316.24,531.23c-.59,0-.89.21-.89.62,0,.21.07.37.21.46.14.09.45.2.93.34.48.13.82.29,1.01.48.2.18.29.48.29.87,0,.5-.14.88-.43,1.13-.29.25-.68.38-1.17.38-.4,0-.84-.05-1.32-.14l-.25-.05.08-.62c.63.08,1.11.13,1.44.13.58,0,.87-.26.87-.77,0-.2-.07-.35-.2-.44s-.42-.2-.88-.32c-.46-.11-.8-.27-1.02-.47-.22-.2-.34-.52-.34-.95s.14-.76.42-.98.67-.33,1.17-.33c.36,0,.78.04,1.27.13l.25.04-.06.63c-.65-.07-1.12-.11-1.39-.11Z"/>
      <path class="cls-8" d="M320.17,530.62h1.82c.49,0,.86.1,1.1.3.24.2.36.51.36.95,0,.28-.05.51-.14.67s-.23.3-.43.41c.46.18.69.55.69,1.11,0,.91-.51,1.36-1.53,1.36h-1.88v-4.79ZM321.95,531.3h-1v1.37h1.03c.46,0,.69-.24.69-.71,0-.44-.24-.67-.71-.67ZM321.99,533.33h-1.04v1.42h1.06c.26,0,.45-.05.58-.16.13-.11.19-.29.19-.55s-.08-.44-.22-.55c-.15-.1-.34-.16-.56-.16Z"/>
      <path class="cls-8" d="M327.14,535.42h-2.69v-4.79h.78v4.1h1.91v.69Z"/>
      <path class="cls-8" d="M330.04,530.62h.81l-1.18,4.79h-1.53l-1.18-4.79h.81l.95,4.11h.35l.95-4.11Z"/>
      <path class="cls-8" d="M333.2,535.42h-1.66v-4.79h1.66c.74,0,1.24.19,1.51.56.27.37.41.96.41,1.76,0,.41-.03.75-.08,1.03s-.15.54-.28.77c-.27.45-.78.68-1.55.68ZM334.31,532.94c0-.58-.07-1-.22-1.25-.15-.26-.44-.38-.9-.38h-.88v3.43h.88c.46,0,.77-.17.92-.51.08-.17.12-.36.15-.55.03-.2.04-.44.04-.73Z"/>
      <path class="cls-8" d="M335.85,535.42v-1.01h.82v1.01h-.82Z"/>
    </g>
    <line class="cls-4" x1="475.24" y1="225.12" x2="482.52" y2="244.01"/>
    <line class="cls-4" x1="481.09" y1="340.17" x2="481.09" y2="327.46"/>
    <polyline class="cls-4" points="372.31 372.96 372.31 360.24 398.97 360.24 398.97 352.46"/>
    <polyline class="cls-4" points="372.31 360.24 345.65 360.24 345.65 352.46"/>
    <line class="cls-4" x1="398.97" y1="360.24" x2="398.97" y2="352.46"/>
    <line class="cls-4" x1="510.88" y1="304.53" x2="510.96" y2="311.26"/>
    <line class="cls-4" x1="516.91" y1="247.77" x2="510.62" y2="254.18"/>
    <rect class="cls-4" x="131.3" y="209.31" width="109.27" height="129.49"/>
    <rect class="cls-4" x="521.89" y="332.24" width="15.24" height="69.78"/>
  </g>
</svg>